<svg xmlns="http://www.w3.org/2000/svg" width="30.997" height="28.27" viewBox="0 0 30.997 28.27">
  <path id="add-person" d="M91.27,98.968H94V101.7H91.27v2.727H88.543V101.7H85.816V98.968h2.727V96.241H91.27Zm-12.335,3.947-12.207,3.868v3.092H88.543v-2.727H91.27v2.727h.012V112.6H64v-7.815l9.7-3.075a10.584,10.584,0,0,1-4.25-8.267,8.181,8.181,0,0,1,16.362,0,10.3,10.3,0,0,1-5.672,9.075l0,.01-.1.032a6.639,6.639,0,0,1-1.11.352Zm-1.3-2.584c2.7,0,5.454-3.559,5.454-6.886a5.454,5.454,0,0,0-10.908,0C72.181,96.772,74.932,100.332,77.635,100.332Z" transform="translate(-63.5 -84.833)" fill="#410165" stroke="#fff" stroke-width="1"/>
</svg>
