<svg id="back-button" xmlns="http://www.w3.org/2000/svg" width="27.402" height="27.402" viewBox="0 0 27.402 27.402">
  <path id="Path_1" data-name="Path 1" d="M13.7,27.4A13.7,13.7,0,1,0,0,13.7,13.717,13.717,0,0,0,13.7,27.4Zm0-25.527A11.826,11.826,0,1,1,1.878,13.7,11.839,11.839,0,0,1,13.7,1.876Z" transform="translate(-0.002)" fill="#fff"/>
  <path id="Path_2" data-name="Path 2" d="M56.516,72.462a.938.938,0,1,0,1.326-1.326l-3.6-3.6H64.674a.938.938,0,0,0,0-1.876H54.238l3.6-3.6a.938.938,0,0,0-1.326-1.326l-5.205,5.205a.938.938,0,0,0,0,1.326Z" transform="translate(-44.655 -52.892)" fill="#fff"/>
</svg>
