<svg id="BG" xmlns="http://www.w3.org/2000/svg" xmlns:xlink="http://www.w3.org/1999/xlink" width="385" height="800" viewBox="0 0 385 800">
  <defs>
    <clipPath id="clip-path">
      <rect width="385" height="800" fill="none"/>
    </clipPath>
    <clipPath id="clip-path-2">
      <rect id="Rectangle_2" data-name="Rectangle 2" width="415" height="896" fill="none"/>
    </clipPath>
    <clipPath id="clip-path-3">
      <rect id="Rectangle_1" data-name="Rectangle 1" width="478" height="987" fill="none"/>
    </clipPath>
    <clipPath id="clip-path-4">
      <rect id="Rectangle_483" data-name="Rectangle 483" width="478" height="970" transform="translate(-899 88)" fill="#fff" stroke="#707070" stroke-width="1"/>
    </clipPath>
    <clipPath id="clip-path-5">
      <rect id="Rectangle_481" data-name="Rectangle 481" width="587" height="1191" fill="none"/>
    </clipPath>
    <clipPath id="clip-path-6">
      <rect id="Rectangle_480" data-name="Rectangle 480" width="475" height="1326" transform="translate(-0.096)" fill="none"/>
    </clipPath>
  </defs>
  <g id="BG-2" data-name="BG" clip-path="url(#clip-path)">
    <g id="BG-3" data-name="BG" transform="translate(721 -70)">
      <g id="Component_8_1" data-name="Component 8 – 1" transform="translate(-721 70)">
        <g id="Repeat_Grid_4" data-name="Repeat Grid 4" clip-path="url(#clip-path-2)">
          <g id="Group_1" data-name="Group 1" transform="translate(509)">
            <g id="PURPLE_bg" data-name="PURPLE bg" transform="translate(-509)">
              <g id="Repeat_Grid_3" data-name="Repeat Grid 3" clip-path="url(#clip-path-3)">
                <g id="Mask_Group_16" data-name="Mask Group 16" transform="translate(899 -88)" clip-path="url(#clip-path-4)">
                  <g id="BG_Main" data-name="BG Main" transform="translate(-1008 -5)">
                    <g id="Repeat_Grid_1" data-name="Repeat Grid 1" clip-path="url(#clip-path-5)">
                      <g id="Group_249" data-name="Group 249">
                        <g id="Dragon-Scales">
                          <rect id="Rectangle_1-2" data-name="Rectangle 1" width="121" height="1206" transform="translate(60 60)" fill="#305"/>
                          <g id="Group_11" data-name="Group 11">
                            <circle id="Ellipse_1" data-name="Ellipse 1" cx="60.5" cy="60.5" r="60.5" transform="translate(60)" fill="#305"/>
                            <g id="Group_1-2" data-name="Group 1" transform="translate(0 60.273)">
                              <circle id="Ellipse_2" data-name="Ellipse 2" cx="60.5" cy="60.5" r="60.5" transform="translate(0 -0.273)" fill="#3a015d"/>
                              <ellipse id="Ellipse_3" data-name="Ellipse 3" cx="60" cy="60.5" rx="60" ry="60.5" transform="translate(121 -0.273)" fill="#3a015d"/>
                            </g>
                            <ellipse id="Ellipse_4" data-name="Ellipse 4" cx="60.5" cy="60" rx="60.5" ry="60" transform="translate(60 121)" fill="#410165"/>
                            <g id="Group_2" data-name="Group 2" transform="translate(0 180.82)">
                              <ellipse id="Ellipse_5" data-name="Ellipse 5" cx="60.5" cy="60" rx="60.5" ry="60" transform="translate(0 0.18)" fill="#48026e"/>
                              <circle id="Ellipse_6" data-name="Ellipse 6" cx="60" cy="60" r="60" transform="translate(121 0.18)" fill="#48026e"/>
                            </g>
                            <circle id="Ellipse_7" data-name="Ellipse 7" cx="60.5" cy="60.5" r="60.5" transform="translate(60 241)" fill="#500376"/>
                            <g id="Group_3" data-name="Group 3" transform="translate(0 301.366)">
                              <circle id="Ellipse_8" data-name="Ellipse 8" cx="60.5" cy="60.5" r="60.5" transform="translate(0 -0.366)" fill="#57047e"/>
                              <ellipse id="Ellipse_9" data-name="Ellipse 9" cx="60" cy="60.5" rx="60" ry="60.5" transform="translate(121 -0.366)" fill="#57047e"/>
                            </g>
                            <ellipse id="Ellipse_10" data-name="Ellipse 10" cx="60.5" cy="60" rx="60.5" ry="60" transform="translate(60 362)" fill="#5f0587"/>
                            <g id="Group_4" data-name="Group 4" transform="translate(0 421.913)">
                              <ellipse id="Ellipse_11" data-name="Ellipse 11" cx="60.5" cy="60" rx="60.5" ry="60" transform="translate(0 0.087)" fill="#67068f"/>
                              <circle id="Ellipse_12" data-name="Ellipse 12" cx="60" cy="60" r="60" transform="translate(121 0.087)" fill="#67068f"/>
                            </g>
                            <circle id="Ellipse_13" data-name="Ellipse 13" cx="60.5" cy="60.5" r="60.5" transform="translate(60 482)" fill="#6f0798"/>
                            <g id="Group_5" data-name="Group 5" transform="translate(0 542.46)">
                              <circle id="Ellipse_14" data-name="Ellipse 14" cx="60.5" cy="60.5" r="60.5" transform="translate(0 -0.46)" fill="#7707a0"/>
                              <ellipse id="Ellipse_15" data-name="Ellipse 15" cx="60" cy="60.5" rx="60" ry="60.5" transform="translate(121 -0.46)" fill="#7707a0"/>
                            </g>
                            <ellipse id="Ellipse_16" data-name="Ellipse 16" cx="60.5" cy="60" rx="60.5" ry="60" transform="translate(60 603)" fill="#8008a9"/>
                            <g id="Group_6" data-name="Group 6" transform="translate(0 663.006)">
                              <circle id="Ellipse_17" data-name="Ellipse 17" cx="60.5" cy="60.5" r="60.5" transform="translate(0 -0.006)" fill="#8909b1"/>
                              <ellipse id="Ellipse_18" data-name="Ellipse 18" cx="60" cy="60.5" rx="60" ry="60.5" transform="translate(121 -0.006)" fill="#8909b1"/>
                            </g>
                            <circle id="Ellipse_19" data-name="Ellipse 19" cx="60.5" cy="60.5" r="60.5" transform="translate(60 723)" fill="#9109ba"/>
                            <g id="Group_7" data-name="Group 7" transform="translate(0 783.553)">
                              <ellipse id="Ellipse_20" data-name="Ellipse 20" cx="60.5" cy="60" rx="60.5" ry="60" transform="translate(0 0.447)" fill="#9a09c3"/>
                              <circle id="Ellipse_21" data-name="Ellipse 21" cx="60" cy="60" r="60" transform="translate(121 0.447)" fill="#9a09c3"/>
                            </g>
                            <ellipse id="Ellipse_22" data-name="Ellipse 22" cx="60.5" cy="60" rx="60.5" ry="60" transform="translate(60 844)" fill="#a309cb"/>
                            <g id="Group_8" data-name="Group 8" transform="translate(0 904.099)">
                              <circle id="Ellipse_23" data-name="Ellipse 23" cx="60.5" cy="60.5" r="60.5" transform="translate(0 -0.099)" fill="#ad09d4"/>
                              <ellipse id="Ellipse_24" data-name="Ellipse 24" cx="60" cy="60.5" rx="60" ry="60.5" transform="translate(121 -0.099)" fill="#ad09d4"/>
                            </g>
                            <circle id="Ellipse_25" data-name="Ellipse 25" cx="60.5" cy="60.5" r="60.5" transform="translate(60 964)" fill="#b608dc"/>
                            <g id="Group_9" data-name="Group 9" transform="translate(0 1024.646)">
                              <ellipse id="Ellipse_26" data-name="Ellipse 26" cx="60.5" cy="60" rx="60.5" ry="60" transform="translate(0 0.354)" fill="#c007e5"/>
                              <circle id="Ellipse_27" data-name="Ellipse 27" cx="60" cy="60" r="60" transform="translate(121 0.354)" fill="#c007e5"/>
                            </g>
                            <ellipse id="Ellipse_28" data-name="Ellipse 28" cx="60.5" cy="60" rx="60.5" ry="60" transform="translate(60 1085)" fill="#c905ee"/>
                            <g id="Group_10" data-name="Group 10" transform="translate(0 1145.192)">
                              <circle id="Ellipse_29" data-name="Ellipse 29" cx="60.5" cy="60.5" r="60.5" transform="translate(0 -0.192)" fill="#d303f6"/>
                              <ellipse id="Ellipse_30" data-name="Ellipse 30" cx="60" cy="60.5" rx="60" ry="60.5" transform="translate(121 -0.192)" fill="#d303f6"/>
                            </g>
                            <circle id="Ellipse_31" data-name="Ellipse 31" cx="60.5" cy="60.5" r="60.5" transform="translate(60 1205)" fill="#d0f"/>
                          </g>
                        </g>
                        <g id="Dragon-Scales-2" data-name="Dragon-Scales" transform="translate(112.097)" clip-path="url(#clip-path-6)">
                          <g id="Dragon-Scales-3" data-name="Dragon-Scales">
                            <rect id="Rectangle_1-3" data-name="Rectangle 1" width="121" height="1206" transform="translate(59.904 60)" fill="#305"/>
                            <g id="Group_11-2" data-name="Group 11">
                              <circle id="Ellipse_1-2" data-name="Ellipse 1" cx="60.5" cy="60.5" r="60.5" transform="translate(59.904)" fill="#305"/>
                              <g id="Group_1-3" data-name="Group 1" transform="translate(0 60.273)">
                                <circle id="Ellipse_2-2" data-name="Ellipse 2" cx="60.5" cy="60.5" r="60.5" transform="translate(-0.096 -0.273)" fill="#3a015d"/>
                                <ellipse id="Ellipse_3-2" data-name="Ellipse 3" cx="60" cy="60.5" rx="60" ry="60.5" transform="translate(120.904 -0.273)" fill="#3a015d"/>
                              </g>
                              <ellipse id="Ellipse_4-2" data-name="Ellipse 4" cx="60.5" cy="60" rx="60.5" ry="60" transform="translate(59.904 121)" fill="#410165"/>
                              <g id="Group_2-2" data-name="Group 2" transform="translate(0 180.82)">
                                <ellipse id="Ellipse_5-2" data-name="Ellipse 5" cx="60.5" cy="60" rx="60.5" ry="60" transform="translate(-0.096 0.18)" fill="#48026e"/>
                                <circle id="Ellipse_6-2" data-name="Ellipse 6" cx="60" cy="60" r="60" transform="translate(120.904 0.18)" fill="#48026e"/>
                              </g>
                              <circle id="Ellipse_7-2" data-name="Ellipse 7" cx="60.5" cy="60.5" r="60.5" transform="translate(59.904 241)" fill="#500376"/>
                              <g id="Group_3-2" data-name="Group 3" transform="translate(0 301.366)">
                                <circle id="Ellipse_8-2" data-name="Ellipse 8" cx="60.5" cy="60.5" r="60.5" transform="translate(-0.096 -0.366)" fill="#57047e"/>
                                <ellipse id="Ellipse_9-2" data-name="Ellipse 9" cx="60" cy="60.5" rx="60" ry="60.5" transform="translate(120.904 -0.366)" fill="#57047e"/>
                              </g>
                              <ellipse id="Ellipse_10-2" data-name="Ellipse 10" cx="60.5" cy="60" rx="60.5" ry="60" transform="translate(59.904 362)" fill="#5f0587"/>
                              <g id="Group_4-2" data-name="Group 4" transform="translate(0 421.913)">
                                <ellipse id="Ellipse_11-2" data-name="Ellipse 11" cx="60.5" cy="60" rx="60.5" ry="60" transform="translate(-0.096 0.087)" fill="#67068f"/>
                                <circle id="Ellipse_12-2" data-name="Ellipse 12" cx="60" cy="60" r="60" transform="translate(120.904 0.087)" fill="#67068f"/>
                              </g>
                              <circle id="Ellipse_13-2" data-name="Ellipse 13" cx="60.5" cy="60.5" r="60.5" transform="translate(59.904 482)" fill="#6f0798"/>
                              <g id="Group_5-2" data-name="Group 5" transform="translate(0 542.46)">
                                <circle id="Ellipse_14-2" data-name="Ellipse 14" cx="60.5" cy="60.5" r="60.5" transform="translate(-0.096 -0.46)" fill="#7707a0"/>
                                <ellipse id="Ellipse_15-2" data-name="Ellipse 15" cx="60" cy="60.5" rx="60" ry="60.5" transform="translate(120.904 -0.46)" fill="#7707a0"/>
                              </g>
                              <ellipse id="Ellipse_16-2" data-name="Ellipse 16" cx="60.5" cy="60" rx="60.5" ry="60" transform="translate(59.904 603)" fill="#8008a9"/>
                              <g id="Group_6-2" data-name="Group 6" transform="translate(0 663.006)">
                                <circle id="Ellipse_17-2" data-name="Ellipse 17" cx="60.5" cy="60.5" r="60.5" transform="translate(-0.096 -0.006)" fill="#8909b1"/>
                                <ellipse id="Ellipse_18-2" data-name="Ellipse 18" cx="60" cy="60.5" rx="60" ry="60.5" transform="translate(120.904 -0.006)" fill="#8909b1"/>
                              </g>
                              <circle id="Ellipse_19-2" data-name="Ellipse 19" cx="60.5" cy="60.5" r="60.5" transform="translate(59.904 723)" fill="#9109ba"/>
                              <g id="Group_7-2" data-name="Group 7" transform="translate(0 783.553)">
                                <ellipse id="Ellipse_20-2" data-name="Ellipse 20" cx="60.5" cy="60" rx="60.5" ry="60" transform="translate(-0.096 0.447)" fill="#9a09c3"/>
                                <circle id="Ellipse_21-2" data-name="Ellipse 21" cx="60" cy="60" r="60" transform="translate(120.904 0.447)" fill="#9a09c3"/>
                              </g>
                              <ellipse id="Ellipse_22-2" data-name="Ellipse 22" cx="60.5" cy="60" rx="60.5" ry="60" transform="translate(59.904 844)" fill="#a309cb"/>
                              <g id="Group_8-2" data-name="Group 8" transform="translate(0 904.099)">
                                <circle id="Ellipse_23-2" data-name="Ellipse 23" cx="60.5" cy="60.5" r="60.5" transform="translate(-0.096 -0.099)" fill="#ad09d4"/>
                                <ellipse id="Ellipse_24-2" data-name="Ellipse 24" cx="60" cy="60.5" rx="60" ry="60.5" transform="translate(120.904 -0.099)" fill="#ad09d4"/>
                              </g>
                              <circle id="Ellipse_25-2" data-name="Ellipse 25" cx="60.5" cy="60.5" r="60.5" transform="translate(59.904 964)" fill="#b608dc"/>
                              <g id="Group_9-2" data-name="Group 9" transform="translate(0 1024.646)">
                                <ellipse id="Ellipse_26-2" data-name="Ellipse 26" cx="60.5" cy="60" rx="60.5" ry="60" transform="translate(-0.096 0.354)" fill="#c007e5"/>
                                <circle id="Ellipse_27-2" data-name="Ellipse 27" cx="60" cy="60" r="60" transform="translate(120.904 0.354)" fill="#c007e5"/>
                              </g>
                              <ellipse id="Ellipse_28-2" data-name="Ellipse 28" cx="60.5" cy="60" rx="60.5" ry="60" transform="translate(59.904 1085)" fill="#c905ee"/>
                              <g id="Group_10-2" data-name="Group 10" transform="translate(0 1145.192)">
                                <circle id="Ellipse_29-2" data-name="Ellipse 29" cx="60.5" cy="60.5" r="60.5" transform="translate(-0.096 -0.192)" fill="#d303f6"/>
                                <ellipse id="Ellipse_30-2" data-name="Ellipse 30" cx="60" cy="60.5" rx="60" ry="60.5" transform="translate(120.904 -0.192)" fill="#d303f6"/>
                              </g>
                              <circle id="Ellipse_31-2" data-name="Ellipse 31" cx="60.5" cy="60.5" r="60.5" transform="translate(59.904 1205)" fill="#d0f"/>
                            </g>
                          </g>
                          <g id="Dragon-Scales-4" data-name="Dragon-Scales" transform="translate(265.175)">
                            <rect id="Rectangle_1-4" data-name="Rectangle 1" width="120" height="1206" transform="translate(60.729 60)" fill="#305"/>
                            <g id="Group_11-3" data-name="Group 11">
                              <ellipse id="Ellipse_1-3" data-name="Ellipse 1" cx="60" cy="60.5" rx="60" ry="60.5" transform="translate(60.729)" fill="#305"/>
                              <g id="Group_1-4" data-name="Group 1" transform="translate(0 60.273)">
                                <circle id="Ellipse_2-3" data-name="Ellipse 2" cx="60.5" cy="60.5" r="60.5" transform="translate(-0.271 -0.273)" fill="#3a015d"/>
                                <ellipse id="Ellipse_3-3" data-name="Ellipse 3" cx="60" cy="60.5" rx="60" ry="60.5" transform="translate(120.729 -0.273)" fill="#3a015d"/>
                              </g>
                              <circle id="Ellipse_4-3" data-name="Ellipse 4" cx="60" cy="60" r="60" transform="translate(60.729 121)" fill="#410165"/>
                              <g id="Group_2-3" data-name="Group 2" transform="translate(0 180.82)">
                                <ellipse id="Ellipse_5-3" data-name="Ellipse 5" cx="60.5" cy="60" rx="60.5" ry="60" transform="translate(-0.271 0.18)" fill="#48026e"/>
                                <circle id="Ellipse_6-3" data-name="Ellipse 6" cx="60" cy="60" r="60" transform="translate(120.729 0.18)" fill="#48026e"/>
                              </g>
                              <ellipse id="Ellipse_7-3" data-name="Ellipse 7" cx="60" cy="60.5" rx="60" ry="60.5" transform="translate(60.729 241)" fill="#500376"/>
                              <g id="Group_3-3" data-name="Group 3" transform="translate(0 301.366)">
                                <circle id="Ellipse_8-3" data-name="Ellipse 8" cx="60.5" cy="60.5" r="60.5" transform="translate(-0.271 -0.366)" fill="#57047e"/>
                                <ellipse id="Ellipse_9-3" data-name="Ellipse 9" cx="60" cy="60.5" rx="60" ry="60.5" transform="translate(120.729 -0.366)" fill="#57047e"/>
                              </g>
                              <circle id="Ellipse_10-3" data-name="Ellipse 10" cx="60" cy="60" r="60" transform="translate(60.729 362)" fill="#5f0587"/>
                              <g id="Group_4-3" data-name="Group 4" transform="translate(0 421.913)">
                                <ellipse id="Ellipse_11-3" data-name="Ellipse 11" cx="60.5" cy="60" rx="60.5" ry="60" transform="translate(-0.271 0.087)" fill="#67068f"/>
                                <circle id="Ellipse_12-3" data-name="Ellipse 12" cx="60" cy="60" r="60" transform="translate(120.729 0.087)" fill="#67068f"/>
                              </g>
                              <ellipse id="Ellipse_13-3" data-name="Ellipse 13" cx="60" cy="60.5" rx="60" ry="60.5" transform="translate(60.729 482)" fill="#6f0798"/>
                              <g id="Group_5-3" data-name="Group 5" transform="translate(0 542.46)">
                                <circle id="Ellipse_14-3" data-name="Ellipse 14" cx="60.5" cy="60.5" r="60.5" transform="translate(-0.271 -0.46)" fill="#7707a0"/>
                                <ellipse id="Ellipse_15-3" data-name="Ellipse 15" cx="60" cy="60.5" rx="60" ry="60.5" transform="translate(120.729 -0.46)" fill="#7707a0"/>
                              </g>
                              <circle id="Ellipse_16-3" data-name="Ellipse 16" cx="60" cy="60" r="60" transform="translate(60.729 603)" fill="#8008a9"/>
                              <g id="Group_6-3" data-name="Group 6" transform="translate(0 663.006)">
                                <circle id="Ellipse_17-3" data-name="Ellipse 17" cx="60.5" cy="60.5" r="60.5" transform="translate(-0.271 -0.006)" fill="#8909b1"/>
                                <ellipse id="Ellipse_18-3" data-name="Ellipse 18" cx="60" cy="60.5" rx="60" ry="60.5" transform="translate(120.729 -0.006)" fill="#8909b1"/>
                              </g>
                              <ellipse id="Ellipse_19-3" data-name="Ellipse 19" cx="60" cy="60.5" rx="60" ry="60.5" transform="translate(60.729 723)" fill="#9109ba"/>
                              <g id="Group_7-3" data-name="Group 7" transform="translate(0 783.553)">
                                <ellipse id="Ellipse_20-3" data-name="Ellipse 20" cx="60.5" cy="60" rx="60.5" ry="60" transform="translate(-0.271 0.447)" fill="#9a09c3"/>
                                <circle id="Ellipse_21-3" data-name="Ellipse 21" cx="60" cy="60" r="60" transform="translate(120.729 0.447)" fill="#9a09c3"/>
                              </g>
                              <circle id="Ellipse_22-3" data-name="Ellipse 22" cx="60" cy="60" r="60" transform="translate(60.729 844)" fill="#a309cb"/>
                              <g id="Group_8-3" data-name="Group 8" transform="translate(0 904.099)">
                                <circle id="Ellipse_23-3" data-name="Ellipse 23" cx="60.5" cy="60.5" r="60.5" transform="translate(-0.271 -0.099)" fill="#ad09d4"/>
                                <ellipse id="Ellipse_24-3" data-name="Ellipse 24" cx="60" cy="60.5" rx="60" ry="60.5" transform="translate(120.729 -0.099)" fill="#ad09d4"/>
                              </g>
                              <ellipse id="Ellipse_25-3" data-name="Ellipse 25" cx="60" cy="60.5" rx="60" ry="60.5" transform="translate(60.729 964)" fill="#b608dc"/>
                              <g id="Group_9-3" data-name="Group 9" transform="translate(0 1024.646)">
                                <ellipse id="Ellipse_26-3" data-name="Ellipse 26" cx="60.5" cy="60" rx="60.5" ry="60" transform="translate(-0.271 0.354)" fill="#c007e5"/>
                                <circle id="Ellipse_27-3" data-name="Ellipse 27" cx="60" cy="60" r="60" transform="translate(120.729 0.354)" fill="#c007e5"/>
                              </g>
                              <circle id="Ellipse_28-3" data-name="Ellipse 28" cx="60" cy="60" r="60" transform="translate(60.729 1085)" fill="#c905ee"/>
                              <g id="Group_10-3" data-name="Group 10" transform="translate(0 1145.192)">
                                <circle id="Ellipse_29-3" data-name="Ellipse 29" cx="60.5" cy="60.5" r="60.5" transform="translate(-0.271 -0.192)" fill="#d303f6"/>
                                <ellipse id="Ellipse_30-3" data-name="Ellipse 30" cx="60" cy="60.5" rx="60" ry="60.5" transform="translate(120.729 -0.192)" fill="#d303f6"/>
                              </g>
                              <ellipse id="Ellipse_31-3" data-name="Ellipse 31" cx="60" cy="60.5" rx="60" ry="60.5" transform="translate(60.729 1205)" fill="#d0f"/>
                            </g>
                          </g>
                        </g>
                        <g id="Dragon-Scales-5" data-name="Dragon-Scales" transform="translate(251.916 12.055)">
                          <rect id="Rectangle_1-5" data-name="Rectangle 1" width="121" height="1206" transform="translate(60.084 59.945)" fill="#305"/>
                          <g id="Group_11-4" data-name="Group 11">
                            <circle id="Ellipse_1-4" data-name="Ellipse 1" cx="60.5" cy="60.5" r="60.5" transform="translate(60.084 -0.055)" fill="#305"/>
                            <g id="Group_1-5" data-name="Group 1" transform="translate(0 60.273)">
                              <ellipse id="Ellipse_2-4" data-name="Ellipse 2" cx="60" cy="60.5" rx="60" ry="60.5" transform="translate(0.084 -0.328)" fill="#3a015d"/>
                              <circle id="Ellipse_3-4" data-name="Ellipse 3" cx="60.5" cy="60.5" r="60.5" transform="translate(120.084 -0.328)" fill="#3a015d"/>
                            </g>
                            <ellipse id="Ellipse_4-4" data-name="Ellipse 4" cx="60.5" cy="60" rx="60.5" ry="60" transform="translate(60.084 120.945)" fill="#410165"/>
                            <g id="Group_2-4" data-name="Group 2" transform="translate(0 180.82)">
                              <circle id="Ellipse_5-4" data-name="Ellipse 5" cx="60" cy="60" r="60" transform="translate(0.084 0.126)" fill="#48026e"/>
                              <ellipse id="Ellipse_6-4" data-name="Ellipse 6" cx="60.5" cy="60" rx="60.5" ry="60" transform="translate(120.084 0.126)" fill="#48026e"/>
                            </g>
                            <circle id="Ellipse_7-4" data-name="Ellipse 7" cx="60.5" cy="60.5" r="60.5" transform="translate(60.084 240.945)" fill="#500376"/>
                            <g id="Group_3-4" data-name="Group 3" transform="translate(0 301.366)">
                              <ellipse id="Ellipse_8-4" data-name="Ellipse 8" cx="60" cy="60.5" rx="60" ry="60.5" transform="translate(0.084 -0.421)" fill="#57047e"/>
                              <circle id="Ellipse_9-4" data-name="Ellipse 9" cx="60.5" cy="60.5" r="60.5" transform="translate(120.084 -0.421)" fill="#57047e"/>
                            </g>
                            <ellipse id="Ellipse_10-4" data-name="Ellipse 10" cx="60.5" cy="60" rx="60.5" ry="60" transform="translate(60.084 361.945)" fill="#5f0587"/>
                            <g id="Group_4-4" data-name="Group 4" transform="translate(0 421.913)">
                              <ellipse id="Ellipse_11-4" data-name="Ellipse 11" cx="60" cy="60.5" rx="60" ry="60.5" transform="translate(0.084 0.032)" fill="#67068f"/>
                              <circle id="Ellipse_12-4" data-name="Ellipse 12" cx="60.5" cy="60.5" r="60.5" transform="translate(120.084 0.032)" fill="#67068f"/>
                            </g>
                            <circle id="Ellipse_13-4" data-name="Ellipse 13" cx="60.5" cy="60.5" r="60.5" transform="translate(60.084 481.945)" fill="#6f0798"/>
                            <g id="Group_5-4" data-name="Group 5" transform="translate(0 542.46)">
                              <circle id="Ellipse_14-4" data-name="Ellipse 14" cx="60" cy="60" r="60" transform="translate(0.084 0.486)" fill="#7707a0"/>
                              <ellipse id="Ellipse_15-4" data-name="Ellipse 15" cx="60.5" cy="60" rx="60.5" ry="60" transform="translate(120.084 0.486)" fill="#7707a0"/>
                            </g>
                            <ellipse id="Ellipse_16-4" data-name="Ellipse 16" cx="60.5" cy="60" rx="60.5" ry="60" transform="translate(60.084 602.945)" fill="#8008a9"/>
                            <g id="Group_6-4" data-name="Group 6" transform="translate(0 663.006)">
                              <ellipse id="Ellipse_17-4" data-name="Ellipse 17" cx="60" cy="60.5" rx="60" ry="60.5" transform="translate(0.084 -0.061)" fill="#8909b1"/>
                              <circle id="Ellipse_18-4" data-name="Ellipse 18" cx="60.5" cy="60.5" r="60.5" transform="translate(120.084 -0.061)" fill="#8909b1"/>
                            </g>
                            <circle id="Ellipse_19-4" data-name="Ellipse 19" cx="60.5" cy="60.5" r="60.5" transform="translate(60.084 722.945)" fill="#9109ba"/>
                            <g id="Group_7-4" data-name="Group 7" transform="translate(0 783.553)">
                              <circle id="Ellipse_20-4" data-name="Ellipse 20" cx="60" cy="60" r="60" transform="translate(0.084 0.393)" fill="#9a09c3"/>
                              <ellipse id="Ellipse_21-4" data-name="Ellipse 21" cx="60.5" cy="60" rx="60.5" ry="60" transform="translate(120.084 0.393)" fill="#9a09c3"/>
                            </g>
                            <ellipse id="Ellipse_22-4" data-name="Ellipse 22" cx="60.5" cy="60" rx="60.5" ry="60" transform="translate(60.084 843.945)" fill="#a309cb"/>
                            <g id="Group_8-4" data-name="Group 8" transform="translate(0 904.099)">
                              <ellipse id="Ellipse_23-4" data-name="Ellipse 23" cx="60" cy="60.5" rx="60" ry="60.5" transform="translate(0.084 -0.154)" fill="#ad09d4"/>
                              <circle id="Ellipse_24-4" data-name="Ellipse 24" cx="60.5" cy="60.5" r="60.5" transform="translate(120.084 -0.154)" fill="#ad09d4"/>
                            </g>
                            <circle id="Ellipse_25-4" data-name="Ellipse 25" cx="60.5" cy="60.5" r="60.5" transform="translate(60.084 963.945)" fill="#b608dc"/>
                            <g id="Group_9-4" data-name="Group 9" transform="translate(0 1024.646)">
                              <circle id="Ellipse_26-4" data-name="Ellipse 26" cx="60" cy="60" r="60" transform="translate(0.084 0.3)" fill="#c007e5"/>
                              <ellipse id="Ellipse_27-4" data-name="Ellipse 27" cx="60.5" cy="60" rx="60.5" ry="60" transform="translate(120.084 0.3)" fill="#c007e5"/>
                            </g>
                            <circle id="Ellipse_28-4" data-name="Ellipse 28" cx="60.5" cy="60.5" r="60.5" transform="translate(60.084 1084.945)" fill="#c905ee"/>
                            <g id="Group_10-4" data-name="Group 10" transform="translate(0 1145.192)">
                              <ellipse id="Ellipse_29-4" data-name="Ellipse 29" cx="60" cy="60.5" rx="60" ry="60.5" transform="translate(0.084 -0.247)" fill="#d303f6"/>
                              <circle id="Ellipse_30-4" data-name="Ellipse 30" cx="60.5" cy="60.5" r="60.5" transform="translate(120.084 -0.247)" fill="#d303f6"/>
                            </g>
                            <ellipse id="Ellipse_31-4" data-name="Ellipse 31" cx="60.5" cy="60" rx="60.5" ry="60" transform="translate(60.084 1205.945)" fill="#d0f"/>
                          </g>
                        </g>
                        <g id="Dragon-Scales-6" data-name="Dragon-Scales" transform="translate(517.09 12.055)">
                          <rect id="Rectangle_1-6" data-name="Rectangle 1" width="121" height="1206" transform="translate(59.91 59.945)" fill="#305"/>
                          <g id="Group_11-5" data-name="Group 11">
                            <circle id="Ellipse_1-5" data-name="Ellipse 1" cx="60.5" cy="60.5" r="60.5" transform="translate(59.91 -0.055)" fill="#305"/>
                            <g id="Group_1-6" data-name="Group 1" transform="translate(0 60.273)">
                              <circle id="Ellipse_2-5" data-name="Ellipse 2" cx="60.5" cy="60.5" r="60.5" transform="translate(-0.09 -0.328)" fill="#3a015d"/>
                              <ellipse id="Ellipse_3-5" data-name="Ellipse 3" cx="60" cy="60.5" rx="60" ry="60.5" transform="translate(120.91 -0.328)" fill="#3a015d"/>
                            </g>
                            <ellipse id="Ellipse_4-5" data-name="Ellipse 4" cx="60.5" cy="60" rx="60.5" ry="60" transform="translate(59.91 120.945)" fill="#410165"/>
                            <g id="Group_2-5" data-name="Group 2" transform="translate(0 180.82)">
                              <ellipse id="Ellipse_5-5" data-name="Ellipse 5" cx="60.5" cy="60" rx="60.5" ry="60" transform="translate(-0.09 0.126)" fill="#48026e"/>
                              <circle id="Ellipse_6-5" data-name="Ellipse 6" cx="60" cy="60" r="60" transform="translate(120.91 0.126)" fill="#48026e"/>
                            </g>
                            <circle id="Ellipse_7-5" data-name="Ellipse 7" cx="60.5" cy="60.5" r="60.5" transform="translate(59.91 240.945)" fill="#500376"/>
                            <g id="Group_3-5" data-name="Group 3" transform="translate(0 301.366)">
                              <circle id="Ellipse_8-5" data-name="Ellipse 8" cx="60.5" cy="60.5" r="60.5" transform="translate(-0.09 -0.421)" fill="#57047e"/>
                              <ellipse id="Ellipse_9-5" data-name="Ellipse 9" cx="60" cy="60.5" rx="60" ry="60.5" transform="translate(120.91 -0.421)" fill="#57047e"/>
                            </g>
                            <ellipse id="Ellipse_10-5" data-name="Ellipse 10" cx="60.5" cy="60" rx="60.5" ry="60" transform="translate(59.91 361.945)" fill="#5f0587"/>
                            <g id="Group_4-5" data-name="Group 4" transform="translate(0 421.913)">
                              <circle id="Ellipse_11-5" data-name="Ellipse 11" cx="60.5" cy="60.5" r="60.5" transform="translate(-0.09 0.032)" fill="#67068f"/>
                              <ellipse id="Ellipse_12-5" data-name="Ellipse 12" cx="60" cy="60.5" rx="60" ry="60.5" transform="translate(120.91 0.032)" fill="#67068f"/>
                            </g>
                            <circle id="Ellipse_13-5" data-name="Ellipse 13" cx="60.5" cy="60.5" r="60.5" transform="translate(59.91 481.945)" fill="#6f0798"/>
                            <g id="Group_5-5" data-name="Group 5" transform="translate(0 542.46)">
                              <ellipse id="Ellipse_14-5" data-name="Ellipse 14" cx="60.5" cy="60" rx="60.5" ry="60" transform="translate(-0.09 0.486)" fill="#7707a0"/>
                              <circle id="Ellipse_15-5" data-name="Ellipse 15" cx="60" cy="60" r="60" transform="translate(120.91 0.486)" fill="#7707a0"/>
                            </g>
                            <ellipse id="Ellipse_16-5" data-name="Ellipse 16" cx="60.5" cy="60" rx="60.5" ry="60" transform="translate(59.91 602.945)" fill="#8008a9"/>
                            <g id="Group_6-5" data-name="Group 6" transform="translate(0 663.006)">
                              <circle id="Ellipse_17-5" data-name="Ellipse 17" cx="60.5" cy="60.5" r="60.5" transform="translate(-0.09 -0.061)" fill="#8909b1"/>
                              <ellipse id="Ellipse_18-5" data-name="Ellipse 18" cx="60" cy="60.5" rx="60" ry="60.5" transform="translate(120.91 -0.061)" fill="#8909b1"/>
                            </g>
                            <circle id="Ellipse_19-5" data-name="Ellipse 19" cx="60.5" cy="60.5" r="60.5" transform="translate(59.91 722.945)" fill="#9109ba"/>
                            <g id="Group_7-5" data-name="Group 7" transform="translate(0 783.553)">
                              <ellipse id="Ellipse_20-5" data-name="Ellipse 20" cx="60.5" cy="60" rx="60.5" ry="60" transform="translate(-0.09 0.393)" fill="#9a09c3"/>
                              <circle id="Ellipse_21-5" data-name="Ellipse 21" cx="60" cy="60" r="60" transform="translate(120.91 0.393)" fill="#9a09c3"/>
                            </g>
                            <ellipse id="Ellipse_22-5" data-name="Ellipse 22" cx="60.5" cy="60" rx="60.5" ry="60" transform="translate(59.91 843.945)" fill="#a309cb"/>
                            <g id="Group_8-5" data-name="Group 8" transform="translate(0 904.099)">
                              <circle id="Ellipse_23-5" data-name="Ellipse 23" cx="60.5" cy="60.5" r="60.5" transform="translate(-0.09 -0.154)" fill="#ad09d4"/>
                              <ellipse id="Ellipse_24-5" data-name="Ellipse 24" cx="60" cy="60.5" rx="60" ry="60.5" transform="translate(120.91 -0.154)" fill="#ad09d4"/>
                            </g>
                            <circle id="Ellipse_25-5" data-name="Ellipse 25" cx="60.5" cy="60.5" r="60.5" transform="translate(59.91 963.945)" fill="#b608dc"/>
                            <g id="Group_9-5" data-name="Group 9" transform="translate(0 1024.646)">
                              <ellipse id="Ellipse_26-5" data-name="Ellipse 26" cx="60.5" cy="60" rx="60.5" ry="60" transform="translate(-0.09 0.3)" fill="#c007e5"/>
                              <circle id="Ellipse_27-5" data-name="Ellipse 27" cx="60" cy="60" r="60" transform="translate(120.91 0.3)" fill="#c007e5"/>
                            </g>
                            <circle id="Ellipse_28-5" data-name="Ellipse 28" cx="60.5" cy="60.5" r="60.5" transform="translate(59.91 1084.945)" fill="#c905ee"/>
                            <g id="Group_10-5" data-name="Group 10" transform="translate(0 1145.192)">
                              <circle id="Ellipse_29-5" data-name="Ellipse 29" cx="60.5" cy="60.5" r="60.5" transform="translate(-0.09 -0.247)" fill="#d303f6"/>
                              <ellipse id="Ellipse_30-5" data-name="Ellipse 30" cx="60" cy="60.5" rx="60" ry="60.5" transform="translate(120.91 -0.247)" fill="#d303f6"/>
                            </g>
                            <ellipse id="Ellipse_31-5" data-name="Ellipse 31" cx="60.5" cy="60" rx="60.5" ry="60" transform="translate(59.91 1205.945)" fill="#d0f"/>
                          </g>
                        </g>
                        <path id="Subtraction_1" data-name="Subtraction 1" d="M501.534,1326.01a60.221,60.221,0,0,1-60.267-60.273A60.323,60.323,0,0,1,382.9,1190.4h54.15v-45.059c1.4-.1,2.82-.146,4.219-.146-1.415,0-2.835-.049-4.219-.146V1024.79c1.4-.1,2.819-.146,4.219-.146-1.417,0-2.837-.049-4.219-.146V904.245c1.4-.1,2.819-.146,4.219-.146-1.417,0-2.837-.049-4.219-.146V783.7c1.4-.1,2.82-.145,4.219-.145-1.415,0-2.835-.049-4.219-.146V663.152c1.4-.1,2.822-.146,4.219-.146-1.416,0-2.836-.049-4.219-.146V542.6c1.4-.1,2.822-.146,4.219-.146-1.416,0-2.836-.049-4.219-.146V422.059c1.4-.1,2.819-.146,4.219-.146-1.417,0-2.837-.049-4.219-.146V301.512c1.4-.1,2.819-.146,4.219-.146-1.415,0-2.835-.049-4.219-.146V180.966c1.4-.1,2.82-.146,4.219-.146-1.415,0-2.835-.049-4.219-.146V75.342H401.4a60.04,60.04,0,0,1,39.863-15.068,60.267,60.267,0,1,1,120.534,0,60.273,60.273,0,1,1,0,120.547,60.273,60.273,0,1,1,0,120.547,60.273,60.273,0,0,1,0,120.547,60.273,60.273,0,1,1,0,120.547,60.273,60.273,0,0,1,0,120.547,60.273,60.273,0,0,1,0,120.547,60.273,60.273,0,0,1,0,120.547,60.273,60.273,0,0,1,0,120.547,60.273,60.273,0,1,1,0,120.547,60.274,60.274,0,1,1,0,120.547,60.22,60.22,0,0,1-60.267,60.273Z" transform="translate(149.349)" fill="#305"/>
                      </g>
                    </g>
                  </g>
                </g>
              </g>
            </g>
          </g>
        </g>
      </g>
    </g>
  </g>
</svg>
