<svg xmlns="http://www.w3.org/2000/svg" width="26.256" height="24.905" viewBox="0 0 26.256 24.905">
  <g id="_12768132461582988843" data-name="12768132461582988843" transform="translate(-3.838 -3.842)">
    <path id="Path_398" data-name="Path 398" d="M24.876,59.027a.274.274,0,0,0,.191-.074.246.246,0,0,0,.078-.181V56.7a.246.246,0,0,0-.078-.181.274.274,0,0,0-.191-.074H22.69a.274.274,0,0,0-.191.074.246.246,0,0,0-.078.181v2.073a.27.27,0,0,0,.275.255Z" transform="translate(-14.528 -41.713)" fill="#8909b2"/>
    <path id="Path_399" data-name="Path 399" d="M48.434,59a.274.274,0,0,0,.191-.074.246.246,0,0,0,.078-.181V56.669a.246.246,0,0,0-.078-.181.274.274,0,0,0-.191-.074H46.249a.274.274,0,0,0-.191.074.246.246,0,0,0-.078.181v2.073a.268.268,0,0,0,.269.255Z" transform="translate(-32.946 -41.69)" fill="#8909b2"/>
    <path id="Path_400" data-name="Path 400" d="M71.992,59a.274.274,0,0,0,.191-.074.246.246,0,0,0,.078-.181V56.669a.246.246,0,0,0-.078-.181.274.274,0,0,0-.191-.074H69.806a.274.274,0,0,0-.191.074.246.246,0,0,0-.078.181v2.073a.268.268,0,0,0,.269.255Z" transform="translate(-51.363 -41.69)" fill="#8909b2"/>
    <path id="Path_401" data-name="Path 401" d="M48.434,79.412a.274.274,0,0,0,.191-.074.246.246,0,0,0,.078-.181V77.084a.246.246,0,0,0-.078-.181.274.274,0,0,0-.191-.074H46.248a.274.274,0,0,0-.191.074.246.246,0,0,0-.078.181v2.073a.268.268,0,0,0,.269.255Z" transform="translate(-32.945 -57.879)" fill="#8909b2"/>
    <path id="Path_402" data-name="Path 402" d="M71.992,79.412a.274.274,0,0,0,.191-.074.246.246,0,0,0,.078-.181V77.084a.246.246,0,0,0-.078-.181.274.274,0,0,0-.191-.074H69.806a.274.274,0,0,0-.191.074.246.246,0,0,0-.078.181v2.073a.268.268,0,0,0,.269.255Z" transform="translate(-51.363 -57.879)" fill="#8909b2"/>
    <path id="Path_403" data-name="Path 403" d="M93.364,76.828H95.55a.263.263,0,0,1,.269.255v2.073a.263.263,0,0,1-.269.255H93.364a.263.263,0,0,1-.269-.255V77.084a.262.262,0,0,1,.269-.255Z" transform="translate(-69.78 -57.879)" fill="#8909b2"/>
    <rect id="Rectangle_486" data-name="Rectangle 486" width="2.724" height="2.584" rx="1.234" transform="translate(7.893 18.95)" fill="#8909b2"/>
    <path id="Path_404" data-name="Path 404" d="M48.434,99.8a.274.274,0,0,0,.191-.074.246.246,0,0,0,.078-.181V97.469a.246.246,0,0,0-.078-.181.274.274,0,0,0-.191-.074H46.248a.274.274,0,0,0-.191.074.246.246,0,0,0-.078.181v2.073a.268.268,0,0,0,.269.255Z" transform="translate(-32.945 -74.044)" fill="#8909b2"/>
    <path id="Path_405" data-name="Path 405" d="M24.876,99.8a.274.274,0,0,0,.191-.074.246.246,0,0,0,.078-.181V97.469a.246.246,0,0,0-.078-.181.274.274,0,0,0-.191-.074H22.691a.274.274,0,0,0-.191.074.246.246,0,0,0-.078.181v2.073a.268.268,0,0,0,.269.255Z" transform="translate(-14.528 -74.044)" fill="#8909b2"/>
    <path id="Path_406" data-name="Path 406" d="M93.364,56.414H95.55a.263.263,0,0,1,.269.255v2.073A.263.263,0,0,1,95.55,59H93.364a.263.263,0,0,1-.269-.255V56.669a.263.263,0,0,1,.269-.255Z" transform="translate(-69.78 -41.69)" fill="#8909b2"/>
    <path id="Path_407" data-name="Path 407" d="M69.806,97.213h2.186a.263.263,0,0,1,.269.255v2.073a.263.263,0,0,1-.269.255H69.807a.263.263,0,0,1-.269-.255V97.469a.262.262,0,0,1,.269-.255Z" transform="translate(-51.363 -74.044)" fill="#8909b2"/>
    <path id="Path_408" data-name="Path 408" d="M28.891,6.867H24.769V5.047a1.272,1.272,0,0,0-2.54,0V6.867H11.7V5.047a1.272,1.272,0,0,0-2.54,0V6.867H5.041a1.174,1.174,0,0,0-1.2,1.142v2.646H30.094V8.009A1.174,1.174,0,0,0,28.891,6.867Z" transform="translate(0 0)" fill="#305"/>
    <path id="Path_409" data-name="Path 409" d="M3.838,57.827a1.174,1.174,0,0,0,1.2,1.142h23.85a1.174,1.174,0,0,0,1.2-1.142V41.953H3.838ZM5.4,43.439H28.527V57.482H5.4Z" transform="translate(0 -30.222)" fill="#305"/>
  </g>
</svg>
