<svg xmlns="http://www.w3.org/2000/svg" width="41.127" height="45.127" viewBox="0 0 41.127 45.127">
  <g id="FD_icon" data-name="FD  icon" transform="translate(0.563 0.563)">
    <ellipse id="Ellipse_116" data-name="Ellipse 116" cx="8.8" cy="8.7" rx="8.8" ry="8.7" transform="translate(22.4 26.6)" fill="none" stroke="#3a015d" stroke-miterlimit="10" stroke-width="1.127"/>
    <g id="Group_251" data-name="Group 251" transform="translate(64.9 70.7) rotate(180)">
      <g id="Group_250" data-name="Group 250">
        <path id="Path_373" data-name="Path 373" d="M38.1,33.4l-4.4,4.4-4.4-4.4" fill="none" stroke="#8909b2" stroke-miterlimit="10" stroke-width="1.148"/>
      </g>
    </g>
    <g id="Group_255" data-name="Group 255" transform="translate(-2.5 -0.5)">
      <g id="Group_254" data-name="Group 254">
        <path id="Path_374" data-name="Path 374" d="M14.1,7.5h10C25.8,6,27.9,3.6,28,2.4V2.2a1.213,1.213,0,0,0-.5-.1,11.548,11.548,0,0,0-1.6.2,7.358,7.358,0,0,1-2.9.2,8.421,8.421,0,0,1-2.1-1.1C20.2,1,19.6.5,19.1.5a3.759,3.759,0,0,0-1.8.9,7.814,7.814,0,0,1-2,1.1,5.877,5.877,0,0,1-2.9-.2,11.548,11.548,0,0,0-1.6-.2c-.3,0-.4,0-.5.1v.2C10.3,3.6,12.5,6,14.1,7.5Z" fill="rgba(0,0,0,0)" stroke="#3a015d" stroke-miterlimit="10" stroke-width="1.127"/>
        <path id="Path_375" data-name="Path 375" d="M35.2,27.2c-1.4-6.5-5.6-14.3-11-17.9H14C7.4,13.6,2.5,24.3,2.5,31.1c0,8.6,6.9,9.2,16.6,9.2a53.922,53.922,0,0,0,7.2-.3" fill="rgba(0,0,0,0)" stroke="#3a015d" stroke-miterlimit="10" stroke-width="1.127"/>
        <path id="Path_376" data-name="Path 376" d="M15.4,16.1c0-3.8,1.7-6.9,3.8-6.9S23,12.3,23,16.1" fill="rgba(0,0,0,0)" stroke="#3a015d" stroke-miterlimit="10" stroke-width="1.014"/>
        <g id="Group_253" data-name="Group 253">
          <line id="Line_2" data-name="Line 2" x2="10.8" transform="translate(13.7 21)" fill="none" stroke="#3a015d" stroke-miterlimit="10" stroke-width="1.127"/>
          <line id="Line_3" data-name="Line 3" x2="8.1" transform="translate(15.2 24.1)" fill="none" stroke="#3a015d" stroke-miterlimit="10" stroke-width="1.127"/>
          <path id="Path_377" data-name="Path 377" d="M17.6,21s3.1.4,2.9,2.9c0,0,0,3-5.2,2.6h0l6.1,7.9" fill="rgba(0,0,0,0)" stroke="#3a015d" stroke-miterlimit="10" stroke-width="1.127"/>
        </g>
      </g>
    </g>
  </g>
</svg>
