<svg xmlns="http://www.w3.org/2000/svg" width="19.914" height="19.383" viewBox="0 0 19.914 19.383">
  <g id="iconfinder_03-house_380637" transform="translate(-4.545 -10.108)">
    <path id="Path_367" data-name="Path 367" d="M202.27,176.852a2.3,2.3,0,1,1-2.3-2.3A2.3,2.3,0,0,1,202.27,176.852Z" transform="translate(-185.472 -157.926)" fill="#1c408f"/>
    <path id="Path_368" data-name="Path 368" d="M20.941,27.308H8.306v-.465c0-.944-.652-4.74-1.093-7.142l-.791.605L4.545,18.081l10.114-7.973,9.8,7.822-1.977,2.212-.461-.36c-.439,2.389-1.085,6.143-1.082,7.06Zm-11.73-.929H20.033c.171-1.965,1.169-7.276,1.214-7.521l.141-.752.981.767.741-.83-8.454-6.749L5.875,18.216l.686.814,1.289-.986.139.742C8.035,19.035,9.038,24.393,9.211,26.379Z" fill="#1c408f"/>
    <rect id="Rectangle_95" data-name="Rectangle 95" width="5.167" height="1.209" transform="translate(11.918 28.282)" fill="#1c408f"/>
  </g>
</svg>
