<svg xmlns="http://www.w3.org/2000/svg" width="18" height="18" viewBox="0 0 18 18">
  <g id="Group_345" data-name="Group 345" transform="translate(-338 -428)">
    <g id="Ellipse_138" data-name="Ellipse 138" transform="translate(338 428)" fill="#fff" stroke="#707070" stroke-width="1">
      <circle cx="9" cy="9" r="9" stroke="none"/>
      <circle cx="9" cy="9" r="8.5" fill="none"/>
    </g>
    <path id="Path_913" data-name="Path 913" d="M2.769-3.056H1.128L.9-9.953H3Zm-.82,1.08a1.107,1.107,0,0,1,.8.294,1,1,0,0,1,.3.752.992.992,0,0,1-.3.745,1.107,1.107,0,0,1-.8.294,1.1,1.1,0,0,1-.8-.294.992.992,0,0,1-.3-.745,1,1,0,0,1,.3-.749A1.091,1.091,0,0,1,1.948-1.976Z" transform="translate(345 442)" fill="red"/>
  </g>
</svg>
