<svg xmlns="http://www.w3.org/2000/svg" width="38" height="38" viewBox="0 0 38 38">
  <g id="Group_14" data-name="Group 14" transform="translate(-231 -158)">
    <g id="Rectangle_38" data-name="Rectangle 38" transform="translate(231 158)" fill="none" stroke="#311b1b" stroke-width="1">
      <rect width="38" height="38" rx="11" stroke="none"/>
      <rect x="0.5" y="0.5" width="37" height="37" rx="10.5" fill="none"/>
    </g>
    <g id="Layer_2" data-name="Layer 2" transform="translate(239.584 164.908)">
      <g id="Loan" transform="translate(0 0)">
        <path id="Path_301" data-name="Path 301" d="M6.236,22.75S1.11,21.774,1.11,18.177c0-4.382,4.712-9.456,5.825-10.589h3.244l3.092,3.521.6-.715-2.466-2.88a1.327,1.327,0,0,0,.2-2.469c.4-.429,1.882-2.079,2.005-3.309A1.542,1.542,0,0,0,12.158-.01,1.581,1.581,0,0,0,10.966.3a1.118,1.118,0,0,1-.662.22H6.377c-.589,0-.856-.639-1.72-.524S3.435.81,3.435,1.917c0,.971,1.427,2.728,1.783,3.141A1.325,1.325,0,0,0,5.4,7.5C3.974,8.967,0,13.446,0,18.2c0,5.291,6.375,5.822,6.375,5.822h13.4V22.766ZM4.367,2.346C4.079,1.485,4.4.922,4.89.82c.445-.081.882.419,1.364.419h4.162a1.2,1.2,0,0,0,.709-.2,1.482,1.482,0,0,1,.942-.332c.73,0,1.047.576.9,1.309A10.371,10.371,0,0,1,11.045,4.7H5.966A9.051,9.051,0,0,1,4.367,2.346Zm.681,3.9a.759.759,0,0,1,.759-.759h5.309a.759.759,0,0,1,0,1.518H5.806a.759.759,0,0,1-.759-.754Z" transform="translate(0 0.013)"/>
        <path id="Path_302" data-name="Path 302" d="M39.208,56.24A4.558,4.558,0,1,0,43.766,60.8,4.558,4.558,0,0,0,39.208,56.24Zm0,8.15A3.592,3.592,0,1,1,42.8,60.8a3.592,3.592,0,0,1-3.592,3.592Z" transform="translate(-25.579 -41.514)"/>
        <path id="Path_303" data-name="Path 303" d="M47.745,64.939h.882l.343-.469H45.91l-.34.469h1.212a.9.9,0,0,1,.555.476H45.91l-.34.471h1.848a.9.9,0,0,1-.89.817h-.785v.6l1.7,1.982h.741L46.57,67.3h-.039a1.5,1.5,0,0,0,1.492-1.406h.61l.343-.469H47.971A1.531,1.531,0,0,0,47.745,64.939Z" transform="translate(-33.64 -47.589)"/>
        <path id="Path_304" data-name="Path 304" d="M23.184,33.65a3.2,3.2,0,1,0,3.2,3.2,3.2,3.2,0,0,0-3.2-3.2Zm0,5.725a2.524,2.524,0,1,1,2.524-2.524A2.524,2.524,0,0,1,23.184,39.375Z" transform="translate(-14.749 -24.837)"/>
        <path id="Path_305" data-name="Path 305" d="M29.727,40.882h.51l.2-.262H28.666l-.2.262h.7a.524.524,0,0,1,.319.275h-.825l-.2.262h1.068a.524.524,0,0,1-.524.469h-.448v.346l.979,1.144h.429l-.929-1.139h-.024a.864.864,0,0,0,.861-.812h.353l.2-.262h-.579A.825.825,0,0,0,29.727,40.882Z" transform="translate(-21.017 -29.983)"/>
        <path id="Path_306" data-name="Path 306" d="M58.882,31.76a3.212,3.212,0,1,0,3.212,3.2A3.212,3.212,0,0,0,58.882,31.76Zm0,5.741a2.532,2.532,0,1,1,1.79-.744A2.529,2.529,0,0,1,58.882,37.5Z" transform="translate(-41.096 -23.442)"/>
        <path id="Path_307" data-name="Path 307" d="M64.317,38.312H64.9L65.118,38h-2l-.225.306h.785a.6.6,0,0,1,.364.312h-.924l-.225.309H64.1a.586.586,0,0,1-.584.524h-.524v.393l1.11,1.309h.484l-1.047-1.309h-.024a.979.979,0,0,0,.971-.914h.4l.223-.306h-.649A.971.971,0,0,0,64.317,38.312Z" transform="translate(-46.426 -28.049)"/>
      </g>
    </g>
  </g>
</svg>
