<svg id="Notification" xmlns="http://www.w3.org/2000/svg" width="43.418" height="32" viewBox="0 0 43.418 32">
  <g id="Group_4" data-name="Group 4" transform="translate(-558.582 1294.923)">
    <g id="Notification-2" data-name="Notification" transform="translate(573.165 -1288.491)">
      <path id="Path_23" data-name="Path 23" d="M502.165-1228.579c5.907,2.393,15.836,6.161,23.525,6.212a34.242,34.242,0,0,1-.916-11.559s-5.3-2.291-4.074-9.213c0-.582-.356-2.6-1.95-2.327s-1.309,1.891-1.454,2.327-7.126-.291-8.29,7.853C508.861-1235.286,505.882-1230.361,502.165-1228.579Z" transform="translate(-502.165 1245.491)" fill="#fff"/>
      <path id="Path_24" data-name="Path 24" d="M510.97-1223.99c-.03,1.115.362,4.1,2.983,4.068s2.742-1.567,2.953-2.712A45.613,45.613,0,0,1,510.97-1223.99Z" transform="translate(-502.165 1245.491)" fill="#fff"/>
      <circle id="Ellipse_1" data-name="Ellipse 1" cx="4" cy="4" r="4" transform="translate(20.835 1.491)" fill="#fff"/>
    </g>
  </g>
  <circle id="Ellipse_115" data-name="Ellipse 115" cx="11" cy="11" r="11" fill="red"/>
  <text id="_12" data-name="12" transform="translate(4 16)" fill="#fff" font-size="12" font-family="Roboto-Bold, Roboto" font-weight="700" letter-spacing="-0.02em"><tspan x="0" y="0">12</tspan></text>
</svg>
