<svg xmlns="http://www.w3.org/2000/svg" width="18.47" height="24.054" viewBox="0 0 18.47 24.054">
  <g id="_8681331601536080157" data-name="8681331601536080157" transform="translate(-6.5)">
    <path id="Path_391" data-name="Path 391" d="M19.594,0H7.128C6.781,0,6.5.281,6.5.827v22.8a.647.647,0,0,0,.628.43H24.341a.647.647,0,0,0,.628-.43V5.574c0-.3-.04-.4-.11-.466l-5-5A.38.38,0,0,0,19.594,0Z" fill="#fff"/>
    <path id="Path_392" data-name="Path 392" d="M37.5.151V5.24h5.089Z" transform="translate(-17.685 -0.086)" fill="#8909b2"/>
    <path id="Path_393" data-name="Path 393" d="M18.318,18.254h0a.69.69,0,0,1-.415-.14,1.029,1.029,0,0,1-.479-.963c.078-.7.943-1.431,2.571-2.177a28.833,28.833,0,0,0,1.627-4.617c-.429-.933-.845-2.143-.542-2.853a.824.824,0,0,1,.487-.522A2.109,2.109,0,0,1,22,6.908c.216,0,.407.279.542.451s.414.5-.16,2.922a13.725,13.725,0,0,0,2.185,3.248,8.356,8.356,0,0,1,1.442-.154c.673,0,1.08.157,1.246.48a.869.869,0,0,1-.168.928,1.142,1.142,0,0,1-.954.512,2.856,2.856,0,0,1-1.809-.981,20.581,20.581,0,0,0-3.792,1.212,12.187,12.187,0,0,1-1.024,1.826C19.074,17.967,18.694,18.254,18.318,18.254Zm1.143-2.2c-.918.516-1.292.94-1.319,1.179,0,.04-.016.143.185.3C18.392,17.508,18.766,17.338,19.462,16.053Zm5.857-1.908c.35.269.436.405.664.405a.648.648,0,0,0,.52-.189.68.68,0,0,0,.1-.178c-.053-.028-.123-.085-.5-.085A6.28,6.28,0,0,0,25.319,14.145Zm-3.209-2.827a30.621,30.621,0,0,1-1.149,3.249,21.462,21.462,0,0,1,2.79-.868A14.7,14.7,0,0,1,22.111,11.318ZM21.85,7.683a1.03,1.03,0,0,0,.041,1.381C22.3,8.156,21.868,7.677,21.85,7.683Z" transform="translate(-6.229 -3.941)" fill="#8909b2"/>
    <path id="Path_394" data-name="Path 394" d="M24.341,46.3H7.128a.628.628,0,0,1-.628-.628V39H24.97v6.674A.628.628,0,0,1,24.341,46.3Z" transform="translate(0 -22.248)" fill="#8909b2"/>
    <g id="Group_269" data-name="Group 269" transform="translate(10.471 18.437)">
      <path id="Path_395" data-name="Path 395" d="M16.449,47.252h-.7V42.924h1.245a1.747,1.747,0,0,1,.546.088,1.485,1.485,0,0,1,.485.264,1.379,1.379,0,0,1,.347.426,1.179,1.179,0,0,1,.132.561,1.534,1.534,0,0,1-.112.6,1.246,1.246,0,0,1-.311.449,1.4,1.4,0,0,1-.482.282,1.853,1.853,0,0,1-.622.1h-.523v1.562Zm0-3.794v1.715h.646a.768.768,0,0,0,.256-.044.644.644,0,0,0,.232-.144.7.7,0,0,0,.17-.279,1.321,1.321,0,0,0,.064-.443,1.2,1.2,0,0,0-.029-.244.7.7,0,0,0-.12-.264.712.712,0,0,0-.256-.211.949.949,0,0,0-.435-.085h-.528Z" transform="translate(-15.744 -42.924)" fill="#fff"/>
      <path id="Path_396" data-name="Path 396" d="M27.578,44.968a3.18,3.18,0,0,1-.115.913,2.27,2.27,0,0,1-.291.634,1.494,1.494,0,0,1-.4.4,1.989,1.989,0,0,1-.426.22,1.759,1.759,0,0,1-.376.094,2.5,2.5,0,0,1-.253.02H24.084V42.924h1.3a2.477,2.477,0,0,1,.96.173,1.993,1.993,0,0,1,.687.461,1.892,1.892,0,0,1,.408.655A2.168,2.168,0,0,1,27.578,44.968Zm-2.091,1.768a1.167,1.167,0,0,0,1.033-.458,2.325,2.325,0,0,0,.317-1.327,2.248,2.248,0,0,0-.064-.534,1.143,1.143,0,0,0-.25-.478,1.317,1.317,0,0,0-.5-.347,2.162,2.162,0,0,0-.822-.132h-.411v3.277Z" transform="translate(-20.502 -42.924)" fill="#fff"/>
      <path id="Path_397" data-name="Path 397" d="M35.314,43.458v1.362h1.809V45.3H35.314v1.95H34.6V42.924H37.3v.534Z" transform="translate(-26.5 -42.924)" fill="#fff"/>
    </g>
  </g>
</svg>
