<svg id="Group_246" data-name="Group 246" xmlns="http://www.w3.org/2000/svg" width="38" height="38" viewBox="0 0 38 38">
  <g id="Path_912" data-name="Path 912" fill="#fff">
    <path d="M 27 37.5 L 11 37.5 C 5.210279941558838 37.5 0.5 32.78971862792969 0.5 27 L 0.5 11 C 0.5 5.210279941558838 5.210279941558838 0.5 11 0.5 L 27 0.5 C 32.78971862792969 0.5 37.5 5.210279941558838 37.5 11 L 37.5 27 C 37.5 28.48374938964844 37.19095993041992 29.88826942443848 36.52742004394531 31.42008018493652 C 34.96651840209961 35.05728912353516 31.13801002502441 37.5 27 37.5 Z" stroke="none"/>
    <path d="M 11 1 C 5.485980987548828 1 1 5.485980987548828 1 11 L 1 27 C 1 32.51401901245117 5.485980987548828 37 11 37 L 27 37 C 30.94091987609863 37 34.58478164672852 34.67898941040039 36.06861877441406 31.22134017944336 C 36.70404815673828 29.75440979003906 37 28.41304969787598 37 27 L 37 11 C 37 5.485980987548828 32.51401901245117 1 27 1 L 11 1 M 11 0 L 27 0 C 33.07513046264648 0 38 4.924869537353516 38 11 L 38 27 C 38 28.5430793762207 37.68227005004883 30.01195907592773 36.98622894287109 31.61882019042969 C 35.4239616394043 35.25923156738281 31.53205108642578 38 27 38 L 11 38 C 4.924869537353516 38 0 33.07513046264648 0 27 L 0 11 C 0 4.924869537353516 4.924869537353516 0 11 0 Z" stroke="none" fill="#311b1b"/>
  </g>
  <g id="Group_7" data-name="Group 7" transform="translate(5.395 8)">
    <g id="Group_6" data-name="Group 6" transform="translate(0)">
      <path id="Union_3" data-name="Union 3" d="M6.213,22.273.671,16.732A2.3,2.3,0,0,1,2.3,12.812a2.278,2.278,0,0,1,1.624.672l.029.029c1.143-1.228,6.04-6.443,6.738-6.464.485-.014,1.74-.011,2.638-.006V0L26.546.005V22.381l-13.223-.005V18.269a6.162,6.162,0,0,0-1.875.143,6.469,6.469,0,0,0-1.5,1.176l-.043.05a2.3,2.3,0,0,1-3.688,2.635ZM1.436,14.248a1.219,1.219,0,0,0,0,1.72l5.541,5.541a1.216,1.216,0,1,0,1.72-1.72L3.155,14.248a1.218,1.218,0,0,0-1.72,0Zm12.929,3.021v.076h.121V21.36H25.408V.976H14.486V8.188H11.755a1.744,1.744,0,0,0-1.372.465c-.4.372-5.65,5.6-5.65,5.6l-.019.021,4.479,4.479a5.345,5.345,0,0,1,2.256-1.488,6.462,6.462,0,0,1,1.286-.111A12.785,12.785,0,0,1,14.365,17.269Z" transform="translate(0)"/>
      <path id="Path_28" data-name="Path 28" d="M1650.165,73.32s.007.529,0,1.26c1.51-.267,3.133-.634,4.4-.963s3.238-.667,3.2-2.522-1.223-2.1-2.69-2.16-3.363,0-3.363,0l.066,1.039s3.755-.35,4.356,0a1.553,1.553,0,0,1,.571,1.121.975.975,0,0,1-.448.917C1655.81,72.3,1650.165,73.32,1650.165,73.32Z" transform="translate(-1640.691 -59.121)"/>
      <path id="Union_2" data-name="Union 2" d="M7.363,19H1.636s0,0,0,0,0-.013,0-.02v-.113a1.628,1.628,0,0,0-.107-.461v0l-.008-.019-.008-.02v0a1.627,1.627,0,0,0-.346-.51,1.644,1.644,0,0,0-.341-.262h0a1.608,1.608,0,0,0-.754-.215H0V16.285H0v-3.8H.818v3.922A2.725,2.725,0,0,1,2.6,18.184H6.4a2.727,2.727,0,0,1,1.784-1.777V2.593A2.728,2.728,0,0,1,6.5,1.085h-4A2.729,2.729,0,0,1,.818,2.593V8.141H0V1.629H.008a1.631,1.631,0,0,0,.76-.187l.015-.008h0a1.639,1.639,0,0,0,.438-.347h0A1.624,1.624,0,0,0,1.636.038h0q0-.019,0-.037H7.364c0,.009,0,.019,0,.028s0,.02,0,.03v0a1.64,1.64,0,0,0,.063.394h0L7.44.493h0a1.623,1.623,0,0,0,.4.658,1.627,1.627,0,0,0,.524.352l0,0,0,0a1.633,1.633,0,0,0,.484.115h0l.024,0H9V2.714H9V17.371H8.911a1.631,1.631,0,0,0-.654.174l0,0,0,0a1.632,1.632,0,0,0-.868,1.218v0l0,.017v0q0,.027-.006.054v.045h0c0,.011,0,.022,0,.033v.046q0,.01,0,.02s0,0,0,0h0Z" transform="translate(15.605 1.356)"/>
      <path id="Path_299" data-name="Path 299" d="M123.623,116.852h1.133l.437-.6h-3.926l-.437.6h1.556a1.155,1.155,0,0,1,.712.612h-1.831l-.437.6H123.2a1.152,1.152,0,0,1-1.145,1.041h-1.012v.765l2.176,2.545h.952l-2.067-2.548h-.049a1.918,1.918,0,0,0,1.912-1.8h.785l.437-.6H123.91A1.917,1.917,0,0,0,123.623,116.852Z" transform="translate(-103.379 -107.898)"/>
    </g>
  </g>
</svg>
