<svg xmlns="http://www.w3.org/2000/svg" width="100.001" height="100" viewBox="0 0 100.001 100">
  <path id="Subtraction_53" data-name="Subtraction 53" d="M-247-4452a49.689,49.689,0,0,1-19.462-3.929,49.838,49.838,0,0,1-15.893-10.716,49.829,49.829,0,0,1-10.716-15.893A49.686,49.686,0,0,1-297-4502a49.683,49.683,0,0,1,3.929-19.462,49.825,49.825,0,0,1,10.716-15.893,49.829,49.829,0,0,1,15.893-10.716A49.681,49.681,0,0,1-247-4552a49.68,49.68,0,0,1,19.462,3.929,49.83,49.83,0,0,1,15.893,10.716,49.826,49.826,0,0,1,10.716,15.893A49.681,49.681,0,0,1-197-4502a49.684,49.684,0,0,1-3.93,19.462,49.831,49.831,0,0,1-10.716,15.893,49.84,49.84,0,0,1-15.893,10.716A49.688,49.688,0,0,1-247-4452Zm-27.706-49.858a2.982,2.982,0,0,0-2.122.878,3,3,0,0,0,0,4.243l16.71,16.71a2.98,2.98,0,0,0,2.123.879,2.993,2.993,0,0,0,2.028-.79l39.154-35.923a3,3,0,0,0,.183-4.238,3.01,3.01,0,0,0-2.212-.971,2.991,2.991,0,0,0-2.028.79l-37.037,33.98-14.678-14.679A2.98,2.98,0,0,0-274.706-4501.857Z" transform="translate(297 4552)" fill="#0caa00"/>
</svg>
