<svg xmlns="http://www.w3.org/2000/svg" width="40" height="40" viewBox="0 0 40 40">
  <g id="Group_339" data-name="Group 339" transform="translate(-4091 -950)">
    <path id="bank-transfer" d="M20,13.477a.586.586,0,1,0,.586.586A.586.586,0,0,0,20,13.477ZM39.828,32.628l-6.372-6.372a.586.586,0,0,0-1,.414V29.6H28.3A12.69,12.69,0,0,0,13.286,9.231H6.958a.586.586,0,0,0-.586.586v2.1L1.415,6.958,6.372,2V4.1a.586.586,0,0,0,.586.586H17.491a.586.586,0,1,0,0-1.172H7.544V.586a.586.586,0,0,0-1-.414L.172,6.543a.586.586,0,0,0,0,.829l6.372,6.372a.586.586,0,0,0,1-.414V10.4H11.7A12.69,12.69,0,0,0,26.714,30.769h6.328a.586.586,0,0,0,.586-.586v-2.1l4.957,4.957L33.628,38V35.9a.586.586,0,0,0-.586-.586H22.509a.586.586,0,0,0,0,1.172h9.948v2.927a.586.586,0,0,0,1,.414l6.372-6.372a.586.586,0,0,0,0-.829ZM20,31.523A11.523,11.523,0,1,1,31.523,20,11.536,11.536,0,0,1,20,31.523Zm6.663-15.385a.583.583,0,0,0-.014-.078l0-.015a.582.582,0,0,0-.062-.146l-.008-.014a.586.586,0,0,0-.046-.064l-.006-.006a.59.59,0,0,0-.053-.054l-.006-.007L20.9,10.908a1.373,1.373,0,0,0-1.8,0l-5.567,4.847-.006.007a.59.59,0,0,0-.053.054l-.006.006a.587.587,0,0,0-.046.064l-.008.014a.582.582,0,0,0-.062.146l0,.015a.582.582,0,0,0-.014.078s0,0,0,0c0,.018,0,.036,0,.055v1.563A1.369,1.369,0,0,0,14.7,19.126h.025v4.622a1.365,1.365,0,0,0-.754.82l-.608,1.811a.586.586,0,0,0,.555.772H26.08a.586.586,0,0,0,.555-.772l-.608-1.811a1.365,1.365,0,0,0-.754-.82V19.126H25.3a1.369,1.369,0,0,0,1.367-1.367V16.2c0-.019,0-.037,0-.055v0Zm-6.791-4.346a.2.2,0,0,1,.257,0l4.386,3.819H15.486ZM14.735,25.979l.349-1.039a.2.2,0,0,1,.185-.133h9.463a.2.2,0,0,1,.185.133l.349,1.039ZM15.9,23.635V19.126H17.07v4.509Zm2.344,0V19.126h1.172v4.509Zm2.344,0V19.126h1.172v4.509Zm2.344,0V19.126H24.1v4.509Zm2.564-5.876a.2.2,0,0,1-.2.2H14.7a.2.2,0,0,1-.2-.2v-.977H25.494Z" transform="translate(4091 950)" fill="#8909b2"/>
  </g>
</svg>
