<svg xmlns="http://www.w3.org/2000/svg" width="38" height="38" viewBox="0 0 38 38">
  <g id="Group_247" data-name="Group 247" transform="translate(-306)">
    <g id="Rectangle_39" data-name="Rectangle 39" transform="translate(306)" fill="#fff" stroke="#707070" stroke-width="1">
      <rect width="38" height="38" rx="11" stroke="none"/>
      <rect x="0.5" y="0.5" width="37" height="37" rx="10.5" fill="none"/>
    </g>
    <g id="Layer_2" data-name="Layer 2" transform="translate(316.882 6)">
      <g id="Layer_3" data-name="Layer 3" transform="translate(0 0)">
        <g id="Smart_phone" data-name="Smart phone">
          <path id="Path_314" data-name="Path 314" d="M13.905,0H2.107A2.107,2.107,0,0,0,0,2.107v21.07a2.107,2.107,0,0,0,2.107,2.115h11.8a2.11,2.11,0,0,0,2.11-2.107V2.107A2.11,2.11,0,0,0,13.905,0ZM15.17,21.07H.842V3.371H15.17ZM2.107.842h11.8A1.265,1.265,0,0,1,15.17,2.107v.423H.842V2.107A1.265,1.265,0,0,1,2.107.842Zm11.8,23.588H2.107A1.265,1.265,0,0,1,.842,23.166V21.9H15.17v1.265A1.265,1.265,0,0,1,13.905,24.43Z" transform="translate(0 0)"/>
          <path id="Path_315" data-name="Path 315" d="M24.942,79.17H22.412a.423.423,0,0,0,0,.845h2.529a.423.423,0,0,0,0-.845Z" transform="translate(-15.67 -56.415)"/>
          <path id="Path_316" data-name="Path 316" d="M24.763,35.344h.957l.371-.514H22.754l-.374.514h1.328a.98.98,0,0,1,.606.523H22.754l-.374.512h2.026a.983.983,0,0,1-.986.888h-.862v.652l1.857,2.173h.813l-1.765-2.176H23.42a1.632,1.632,0,0,0,1.63-1.538h.67l.371-.514H25.007A1.6,1.6,0,0,0,24.763,35.344Z" transform="translate(-15.948 -24.819)"/>
          <path id="Path_317" data-name="Path 317" d="M25.429,5.239h.842a.423.423,0,1,0,0-.842h-.842a.423.423,0,0,0,0,.842Z" transform="translate(-17.844 -3.132)"/>
          <path id="Path_318" data-name="Path 318" d="M10.109,31.954a.421.421,0,0,0,.664-.517l-.026-.029A4.633,4.633,0,0,1,16,24.093l-.575.152a.423.423,0,0,0,.109.831.475.475,0,0,0,.109,0l1.624-.451a.42.42,0,0,0,.287-.517h0l-.434-1.627a.423.423,0,1,0-.8.218l.181.684a5.478,5.478,0,0,0-6.392,8.571Z" transform="translate(-6.261 -15.744)"/>
          <path id="Path_319" data-name="Path 319" d="M23.663,37.206a4.636,4.636,0,0,1-5.748,1.977l.575-.155a.422.422,0,0,0-.218-.813l-1.63.434a.425.425,0,0,0-.287.517h0l.437,1.627a.417.417,0,0,0,.405.313.454.454,0,0,0,.109-.014.42.42,0,0,0,.287-.514h0l-.181-.69a5.478,5.478,0,0,0,6.427-8.533.423.423,0,0,0-.652.535h0a4.648,4.648,0,0,1,.468,5.309Z" transform="translate(-11.643 -22.246)"/>
        </g>
      </g>
    </g>
  </g>
</svg>
