<svg id="Layer_2" data-name="Layer 2" xmlns="http://www.w3.org/2000/svg" width="20.615" height="20.035" viewBox="0 0 20.615 20.035">
  <g id="Layer_10" data-name="Layer 10" transform="translate(0)">
    <path id="Path_361" data-name="Path 361" d="M139.87,46.09Z" transform="translate(-125.586 -41.534)" fill="#adadae"/>
    <path id="Path_362" data-name="Path 362" d="M20.611,144v.131a3.631,3.631,0,0,1-3.631,3.631H6.332v2.232l-3-2.233L0,145.284H17.031A1.064,1.064,0,0,0,18.1,144.22V144Z" transform="translate(0 -129.959)" fill="#adadae"/>
    <rect id="Rectangle_93" data-name="Rectangle 93" width="3.812" height="0.002" transform="translate(14.284 4.556)" fill="#adadae"/>
    <path id="Path_363" data-name="Path 363" d="M20.608,4.707H3.58A1.065,1.065,0,0,0,2.515,5.771v.174H0v-.1A3.631,3.631,0,0,1,3.631,2.21H14.284V0l2.975,2.21Z" transform="translate(0)" fill="#adadae"/>
    <path id="Path_364" data-name="Path 364" d="M146.2,46.092H139.87v0h6.324Z" transform="translate(-125.586 -41.534)" fill="#adadae"/>
    <rect id="Rectangle_94" data-name="Rectangle 94" width="2.515" height="0.002" transform="translate(18.096 4.556)" fill="#adadae"/>
    <path id="Path_365" data-name="Path 365" d="M25.06,64.94v7.767h5.611a4.593,4.593,0,0,1-1.034-3c0-2.195,1.341-3.974,3-3.974s3,1.779,3,3.974a4.593,4.593,0,0,1-1.034,3H40.6V64.94Zm4.118,6.5H26.207V69.7h.519V70.93h2.451Zm0-4.756H26.727v1.222h-.52V66.172h2.971Zm10.275,4.756H36.479V70.93H38.93V69.7h.523Zm0-3.533h-.519V66.682H36.483v-.511h2.97Z" transform="translate(-22.501 -58.649)" fill="#adadae"/>
    <path id="Path_366" data-name="Path 366" d="M85.442,90.695h.8l.306-.425H83.776l-.306.425h1.1a.817.817,0,0,1,.5.433H83.776l-.306.425h1.675a.817.817,0,0,1-.8.732h-.715v.54l1.532,1.809h.673L84.37,92.827h-.029a1.354,1.354,0,0,0,1.351-1.274h.556l.306-.426h-.908A1.338,1.338,0,0,0,85.442,90.695Z" transform="translate(-74.946 -81.427)" fill="#adadae"/>
  </g>
</svg>
