<svg xmlns="http://www.w3.org/2000/svg" width="29.438" height="36.374" viewBox="0 0 29.438 36.374">
  <g id="Layer_2" data-name="Layer 2" transform="translate(0.039 0)">
    <g id="Layer_4" data-name="Layer 4" transform="translate(-0.039 0)">
      <path id="Path_320" data-name="Path 320" d="M27.551,34.494a.626.626,0,0,0,0-1.247H17.419a.626.626,0,1,0,0,1.247h8.537v3.185H2.8a1.586,1.586,0,1,1,0-3.169H5.152a.626.626,0,0,0,0-1.247H2.8a1.782,1.782,0,0,0-.21,0h0A2.826,2.826,0,0,0,.615,37.889a1.211,1.211,0,0,0-.525.989V55.137A2.063,2.063,0,0,0,2.149,57.2H26.772a1.211,1.211,0,0,0,1.211-1.211V38.878a1.211,1.211,0,0,0-.775-1.118V34.494Zm-.819,20.853a.593.593,0,0,1-.593.593H2.912a1.574,1.574,0,0,1-1.574-1.574V39.52a.593.593,0,0,1,.593-.593H26.15a.593.593,0,0,1,.593.593Z" transform="translate(0.039 -20.825)" fill="#fff"/>
      <path id="Path_321" data-name="Path 321" d="M48.172,55.3h-.036a.605.605,0,0,0-.605.605V57.52H42.356a2.826,2.826,0,1,0,0,5.651H47.53v1.615a.605.605,0,0,0,.605.605h.036a.605.605,0,0,0,.6-.605v-8.88a.605.605,0,0,0-.6-.605ZM42.36,61.944a1.586,1.586,0,1,1,0-3.173H47.53v3.173Z" transform="translate(-23.558 -33.978)" fill="#fff"/>
      <path id="Path_322" data-name="Path 322" d="M19.64,15.09a5.47,5.47,0,1,0,5.47,5.465,5.47,5.47,0,0,0-5.47-5.465Zm0,9.639a1.73,1.73,0,1,1,0,.012Z" transform="translate(-8.435 -9.229)" fill="#fff"/>
      <path id="Path_323" data-name="Path 323" d="M25.511,22.689h.957l.371-.509H23.521l-.371.509h1.316a.957.957,0,0,1,.6.517H23.521l-.371.517h2.018a.977.977,0,0,1-.965.88h-.868v.646L25.172,27.4h.807l-1.748-2.156h-.04a1.615,1.615,0,0,0,1.615-1.522h.662l.371-.509H25.754A1.518,1.518,0,0,0,25.511,22.689Z" transform="translate(-13.79 -13.505)" fill="#fff"/>
      <path id="Path_324" data-name="Path 324" d="M51.264,0a5.47,5.47,0,1,0,5.465,5.465A5.47,5.47,0,0,0,51.264,0Zm0,9.639a4.174,4.174,0,1,1,4.17-4.174,4.174,4.174,0,0,1-4.17,4.174Z" transform="translate(-27.291 0)" fill="#fff"/>
      <path id="Path_325" data-name="Path 325" d="M57.141,7.6H58.1l.371-.509H55.147L54.78,7.6h1.3a.977.977,0,0,1,.6.517H55.147l-.367.509H56.8a.977.977,0,0,1-.969.88h-.868v.646L56.8,12.3h.807l-1.748-2.156h-.04a1.615,1.615,0,0,0,1.615-1.522H58.1l.371-.509H57.384a1.731,1.731,0,0,0-.242-.517Z" transform="translate(-32.652 -4.228)" fill="#fff"/>
    </g>
  </g>
</svg>
