<svg xmlns="http://www.w3.org/2000/svg" width="40" height="40" viewBox="0 0 40 40">
  <path id="Path_911" data-name="Path 911" d="M16.357,10.464a.586.586,0,0,0,.586.586H19.08a2,2,0,0,1,1.91,1.412H16.943a.586.586,0,1,0,0,1.172H20.99a2,2,0,0,1-1.91,1.412H16.854l-.031.005-.016,0-.039.01-.01,0c-.014,0-.029.009-.043.016l-.02.01-.03.015-.025.015-.023.015-.021.016-.025.019-.018.016c-.009.008-.017.016-.025.024h0l-.012.015-.023.025-.016.022-.018.025c-.005.009-.009.016-.015.024l-.014.025c0,.009-.009.017-.012.026L16.4,15.4l-.009.027-.009.027-.007.027a.181.181,0,0,1-.006.028l0,.03V15.6a.152.152,0,0,0,0,.019v.063a.089.089,0,0,0,0,.033c0,.011,0,.016,0,.024a.161.161,0,0,0,.008.029.262.262,0,0,0,.007.027.093.093,0,0,0,.011.031l.009.022.018.038c.006.013,0,.009.006.013s.013.021.019.031l.011.018.017.023L16.5,16c0,.006.011.012.016.018a.235.235,0,0,0,.023.025v0l4.621,4.471a.586.586,0,1,0,.815-.842l-3.58-3.464h.688a3.174,3.174,0,0,0,3.114-2.584h.859a.586.586,0,1,0,0-1.172h-.859a3.156,3.156,0,0,0-.655-1.412h1.516a.586.586,0,1,0,0-1.172H16.943a.586.586,0,0,0-.586.6ZM13.784,8.685A8.789,8.789,0,1,0,20,6.111,8.789,8.789,0,0,0,13.784,8.685ZM27.616,14.9a7.616,7.616,0,1,1-2.231-5.387A7.616,7.616,0,0,1,27.616,14.9ZM26.231,28.011a.586.586,0,0,0,.79.252l.013-.007a.588.588,0,1,0-.8-.245Zm-1.046.461a.587.587,0,0,0-.745-.364l-.013,0a.586.586,0,0,0,.2,1.137.593.593,0,0,0,.193-.033l-.187-.555.191.555a.586.586,0,0,0,.363-.745ZM24.644,1.92l.023.008a.571.571,0,0,0,.185.03.593.593,0,1,0-.208-.038Zm-2.218-.593h.011a.547.547,0,0,0,.1.009.586.586,0,0,0,.1-1.163H22.63a.586.586,0,1,0-.2,1.154ZM15.674,28.147a.6.6,0,1,0,.023.008Zm-.2.657V28.8l.03-.088Zm18.569-10.4a.59.59,0,1,0,.4.747.188.188,0,0,1,.008-.028.584.584,0,0,0-.411-.719ZM32.781,9.619a.586.586,0,0,0,1.084-.447l-.009-.021a.586.586,0,0,0-1.074.469ZM33.5,11.8V11.8a.586.586,0,0,0,.57.452.619.619,0,0,0,.135-.016.586.586,0,0,0,.436-.7V11.53A.586.586,0,1,0,33.5,11.8Zm1.436,4.972h0a.586.586,0,1,0-.648.52.481.481,0,0,0,.066,0,.587.587,0,0,0,.582-.52Zm-8.2-13.893.014.008a.577.577,0,0,0,.28.073.587.587,0,0,0,.285-1.1l-.291.51.289-.51a.586.586,0,0,0-.578,1.016ZM30.33,5.758a.586.586,0,1,0,.865-.791l-.44.391.439-.391a.587.587,0,0,0-.882.776Zm2.4,6.321a.586.586,0,0,0-.781.869l2.238,2.027a.587.587,0,0,0,.391.152.635.635,0,0,0,.067,0,.586.586,0,0,0,.415-.249l1.669-2.416a.586.586,0,0,0-.964-.666l-1.289,1.866ZM28.642,4.163l.025.02a.59.59,0,1,0-.025-.02Zm3.566,3.7a.586.586,0,0,0,.5-.887l-.016-.027a.586.586,0,1,0-.486.914ZM17.856,28.677a.586.586,0,0,0-.2,1.154l.022,0a.569.569,0,0,0,.089.006.586.586,0,0,0,.093-1.164Zm-2.4,3.791L13.931,32h0l-1.641-.5a.937.937,0,0,1-.625-.617,7.278,7.278,0,0,0,1.094-2.54,3.425,3.425,0,0,0,.052-.349.587.587,0,1,0,.834-.711l-.02-.011a.586.586,0,0,0-.786.262c0,.009-.008.018-.012.027a3.2,3.2,0,0,0-.046-.452,4.017,4.017,0,0,0,.1-.508l.2-.83a4.08,4.08,0,0,0-1.75-4.375,2.356,2.356,0,1,0-4.6,0,4.079,4.079,0,0,0-1.752,4.375l.091.391.1.441a4.118,4.118,0,0,0,.2.845,3.677,3.677,0,0,0,.031.731,6.784,6.784,0,0,0,.987,2.565.945.945,0,0,1-.213.477.932.932,0,0,1-.445.293l-1.627.5-.015,0-1.489.455A3.628,3.628,0,0,0,0,35.96v3.394a.586.586,0,0,0,1.172,0V35.96A2.464,2.464,0,0,1,2.926,33.59L4.4,33.14l.016,0,.409-.124a6.7,6.7,0,0,0,4.219,1.91q.22.014.431.014a6.809,6.809,0,0,0,4.437-1.712l1.205.367a2.465,2.465,0,0,1,1.757,2.369v3.394a.586.586,0,0,0,1.172,0V35.96a3.63,3.63,0,0,0-2.586-3.491ZM13.319,27.9l.052-.1-.056.107Zm-4.3-8.2a1.186,1.186,0,0,1,1.184,1.184,4.11,4.11,0,0,0-1.039-.156H9.052a4.134,4.134,0,0,0-1.214.156A1.186,1.186,0,0,1,9.023,19.7ZM6.108,25.495A2.93,2.93,0,0,1,9.029,21.9h.114a2.927,2.927,0,0,1,2.79,3.6v0a2.471,2.471,0,0,0-1.2-.383c-.078-.009-.148-.019-.218-.03a2.334,2.334,0,0,1-1.155-.469c-.078-.066-.373-.365-.484-.492,0-.01-.01-.02-.016-.03a.587.587,0,0,0-.8-.219h0A6.459,6.459,0,0,0,6.108,25.495Zm5.5,2.622c-.23,1.156-1.266,3.225-2.51,3.229h0A2.233,2.233,0,0,1,7.426,30.21a5.592,5.592,0,0,1-.879-2.2c-.156-1.1.378-2.016,1.675-2.856.128.131.305.307.366.359a3.563,3.563,0,0,0,1.742.737c.078.013.166.023.252.034.248.031.588.078.674.184A1.981,1.981,0,0,1,11.612,28.117ZM9.123,33.75A5.438,5.438,0,0,1,6.142,32.6a2.109,2.109,0,0,0,.914-.629,2.178,2.178,0,0,0,.163-.226,2.8,2.8,0,0,0,1.875.768H9.1a2.662,2.662,0,0,0,1.73-.7c.036.05.073.1.113.147a2.109,2.109,0,0,0,1,.656l.585.179a5.485,5.485,0,0,1-3.408.948ZM5.595,19.279a.583.583,0,1,0-.009-.028C5.588,19.258,5.592,19.272,5.595,19.279Zm.071-1.855a.546.546,0,0,0,.071,0,.586.586,0,0,0,.512-.652v-.022a.586.586,0,1,0-.58.679Zm-.109-.573.11-.013-.121.015Zm0-1.747a.588.588,0,1,0-.585-.608V14.5a.584.584,0,0,0,.565.6ZM37.413,32.468l-3.17-.962a.948.948,0,0,1-.642-.675,1,1,0,0,1-.027-.239c-.006-.325-.017-.719-.032-1.206a5.164,5.164,0,0,0,.993-2.831v-.41a.577.577,0,0,0,.078-.192l.263-1.216.2-.927a3.405,3.405,0,0,0-.484-2.6A2.982,2.982,0,0,0,32.64,19.9c-.367-.066-.733-.14-1.086-.217l-.234-.052a6.572,6.572,0,0,0-1.473-.213h-.057a2.909,2.909,0,0,0-2.257,1.1,3.411,3.411,0,0,0-.658,2.851l.547,2.516v.662a5.181,5.181,0,0,0,1.054,2.914l-.132,1.073a.555.555,0,0,0,0,.072.948.948,0,0,1-.67.9l-1.626.5-.016,0-1.489.455a3.628,3.628,0,0,0-2.591,3.491v3.394a.586.586,0,0,0,1.172,0V35.96a2.464,2.464,0,0,1,1.755-2.369l1.087-.331,1.624,1.856a1.129,1.129,0,0,0,1.562.137l1.237-1v5.1a.586.586,0,0,0,1.172,0V34.3l1.184.953a1.13,1.13,0,0,0,1.563-.135l1.641-1.869,1.126.343a2.465,2.465,0,0,1,1.752,2.37v3.394a.586.586,0,0,0,1.172,0V35.96A3.63,3.63,0,0,0,37.413,32.468Zm-9.27-8.77-.124-.574a2.231,2.231,0,0,1,.427-1.864,1.719,1.719,0,0,1,1.35-.669h.041a5.574,5.574,0,0,1,1.229.184l.239.054c.367.078.747.156,1.128.226a1.822,1.822,0,0,1,1.186.8,2.23,2.23,0,0,1,.312,1.7l-.041.187a1.842,1.842,0,0,0-1.047-.338,1.273,1.273,0,0,1-.667-.185,1.889,1.889,0,0,0-2.385.137.986.986,0,0,1-.6.111A1.935,1.935,0,0,0,28.143,23.7Zm.45,1.7a.865.865,0,0,1,.139-.686c.078-.064.2-.071.469-.072a2.034,2.034,0,0,0,1.277-.327,1.192,1.192,0,0,1,.64-.287.7.7,0,0,1,.4.156,2.382,2.382,0,0,0,1.229.391c.276.025.38.041.465.12a.957.957,0,0,1,.161.712v1.142c0,1.34-1.2,3.2-2.386,3.2s-2.391-1.863-2.391-3.2V25.4Zm-.142,8.911L27.2,32.882l.815-.248a2.109,2.109,0,0,0,.579-.279l1.312.789Zm2.5-1.908-1.612-.968a2.109,2.109,0,0,0,.17-.789l.021-.172a2.552,2.552,0,0,0,2.87.016v.12a2.169,2.169,0,0,0,.062.5,2.109,2.109,0,0,0,.109.322Zm2.5,1.909L32,33.142l1.328-.8a2.109,2.109,0,0,0,.576.277l.816.249ZM20.072,28.846h-.025a.586.586,0,1,0,.017,1.172h.013a.586.586,0,1,0,0-1.172Zm0,.673Zm2.3.3a.646.646,0,0,0,.086-.006l.027,0a.586.586,0,1,0-.113.011ZM9.428,5.71a.585.585,0,0,0,.43-.187l.014-.016A.586.586,0,0,0,9,4.727H9a.586.586,0,0,0,.431.982ZM11.2,4.1a.581.581,0,0,0,.351-.117l.025-.02A.587.587,0,1,0,11.2,4.1ZM13.22,2.8a.583.583,0,0,0,.269-.066l.026-.014a.587.587,0,1,0-.3.078ZM3.827,14.2,5.6,12.665l1.25,1.893a.586.586,0,1,0,.978-.645l-1.62-2.451a.586.586,0,0,0-.873-.12l-2.28,1.978a.587.587,0,1,0,.77.885ZM17.75,1.288a.645.645,0,0,0,.086-.006l.022,0A.586.586,0,1,0,17.667.122l.084.58-.085-.58a.586.586,0,0,0,.084,1.166Zm-2.327.57a.571.571,0,0,0,.185-.03h.008A.586.586,0,1,0,15.245.715h-.008a.586.586,0,0,0,.186,1.142ZM6.562,9.642a.576.576,0,0,0,.234.049.587.587,0,1,0-.535-.823h0a.584.584,0,0,0,.3.773ZM7.62,7.5a.591.591,0,0,0,.323.1.579.579,0,0,0,.487-.263.586.586,0,0,0-.964-.665l-.012.018A.589.589,0,0,0,7.62,7.5Zm12.52-6.389h.011A.586.586,0,1,0,20.167-.06h-.025a.586.586,0,1,0,0,1.172Z" transform="translate(0.001 0.06)" fill="#8909b2"/>
</svg>
