<svg xmlns="http://www.w3.org/2000/svg" width="23.591" height="21.964" viewBox="0 0 23.591 21.964"><defs><style>.a{fill:none;stroke:#1b3e8e;stroke-width:0.8px;}</style></defs><g transform="translate(-5.6 -21.3)"><g transform="translate(10.596 32.652)"><path class="a" d="M101.068,244.026,97.834,239.6,94.6,244.026h1.676v5.252h3.116v-5.252Z" transform="translate(-94.6 -239.415)"/><path class="a" d="M240.22,244.948V239.6h-2.744v5.348H236l2.848,4.514,2.848-4.514Z" transform="translate(-227.648 -239.6)"/></g><path class="a" d="M25.459,28.642V28.6a3.2,3.2,0,0,0-3.291-3.105,3.385,3.385,0,0,0-.666.065A4.76,4.76,0,0,0,16.726,21.7a4.8,4.8,0,0,0-4.668,3.376c-.055,0-.109,0-.164,0A3.2,3.2,0,0,0,8.6,28.177a3.118,3.118,0,0,0,.064.624A3.741,3.741,0,0,0,6,32.315a4.067,4.067,0,0,0,2.124,3.514,1.844,1.844,0,0,0,.843.206h.469l4.474-5.443,4.368,5.531V31.385h6.839v4.738h1.129a4.624,4.624,0,0,0,.742,0c1.68-.089,1.81-1.843,1.8-3.821A3.8,3.8,0,0,0,25.459,28.642Z" transform="translate(0 0)"/></g></svg>