<svg xmlns="http://www.w3.org/2000/svg" width="25.387" height="22.418" viewBox="0 0 25.387 22.418"><defs><style>.a{fill:none;stroke:#1c3e8e;}.b{fill:#fca141;}</style></defs><g transform="translate(-500.929 1245.995)"><path class="a" d="M502.165-1231.327c4.947,2,13.263,5.16,19.7,5.2a28.678,28.678,0,0,1-.767-9.681s-4.435-1.919-3.412-7.716c0-.487-.3-2.178-1.633-1.949s-1.1,1.583-1.218,1.949-5.968-.244-6.943,6.577C507.773-1236.944,505.279-1232.819,502.165-1231.327Z" transform="translate(0)"/><path class="a" d="M510.97-1223.991c-.025.934.3,3.432,2.5,3.407s2.3-1.312,2.473-2.271A38.179,38.179,0,0,1,510.97-1223.991Z" transform="translate(-1.43 -3.493)"/><circle class="b" cx="3.35" cy="3.35" r="3.35" transform="translate(519.615 -1244.242)"/></g></svg>