<svg xmlns="http://www.w3.org/2000/svg" width="28.835" height="25.569" viewBox="0 0 28.835 25.569"><defs><style>.a{fill:#b9c1d0;}.b{fill:#fca141;}</style></defs><g transform="translate(-502.165 1245.491)"><path class="a" d="M502.165-1228.579c5.907,2.393,15.836,6.161,23.525,6.212a34.242,34.242,0,0,1-.916-11.559s-5.3-2.291-4.074-9.213c0-.582-.356-2.6-1.95-2.327s-1.309,1.891-1.454,2.327-7.126-.291-8.29,7.853C508.861-1235.286,505.882-1230.361,502.165-1228.579Z"/><path class="a" d="M510.97-1223.99c-.03,1.115.362,4.1,2.983,4.068s2.742-1.567,2.953-2.712A45.613,45.613,0,0,1,510.97-1223.99Z"/><circle class="b" cx="4" cy="4" r="4" transform="translate(523 -1244)"/></g></svg>