<svg xmlns="http://www.w3.org/2000/svg" width="16.431" height="18.96" viewBox="0 0 16.431 18.96"><defs><style>.a{fill:#adadae;}</style></defs><g transform="translate(1.025 0)"><g transform="translate(-0.025 0)"><path class="a" d="M15.6,35H3.317A1.718,1.718,0,0,0,1.75,36.837V36.9c.015.873.552,1,1.285,1.157V42.1a4.02,4.02,0,0,0,3.06,4.134,3.008,3.008,0,0,0-.334,1.378v.423a.613.613,0,0,0,.554.649h6.266a.613.613,0,0,0,.554-.649v-.423a2.961,2.961,0,0,0-.287-1.378,4.013,4.013,0,0,0,3.06-4.128V38.251c.736-.164,1.27-.493,1.274-1.371v-.043a2.008,2.008,0,0,0-.464-1.306A1.456,1.456,0,0,0,15.6,35ZM6.58,48.163c-.391-.073-.133-1.713.391-1.758,0,0,3.708-.016,5.068,0,.432.034.714,1.674.391,1.758S6.972,48.236,6.58,48.163Zm10.3-11.277a.741.741,0,0,1-.282.693,2.01,2.01,0,0,1-1.011.308H8.479c-.306,0-.541-.184-.541.174s.248.2.554.2l7.107-.006V42.1a3.685,3.685,0,0,1-3.252,3.928H6.6c-2.021.016-3.318-2.109-3.286-3.922V38.062c0-.357,0-.211,0-.373s-.282,0-.282,0c-.248,0-1.094-.493-1.094-.784l.927-.067a.5.5,0,0,1,.449-.527H16.425a.5.5,0,0,1,.454.527Z" transform="translate(-1.75 -29.727)"/><path class="a" d="M9.46,38.94a.35.35,0,1,0,.35.35A.35.35,0,0,0,9.46,38.94Z" transform="translate(1.91 -29.066)"/><rect class="a" width="1.375" height="0.341" rx="0.17" transform="translate(6.779 13.109)"/><rect class="a" width="1.375" height="0.341" rx="0.17" transform="translate(7.635 12.593) rotate(90)"/><path class="a" d="M15.1,0H13.442a.3.3,0,0,0-.3.3V.661A43.064,43.064,0,0,0,7.653.129H7.207A35.265,35.265,0,0,0,3.329.271a9.764,9.764,0,0,0-2.678.737A.456.456,0,0,0,1,1.785c.248,0,.75,0,1.246-.036-.066.036-.122.066-.169.1A8.891,8.891,0,0,0,.013,3.851a.456.456,0,0,0,.6.6C1.061,4.3,2.139,3.372,2.628,3.1a4.6,4.6,0,0,1,.8-.271h0l-.106.142c-.066.1-.126.2-.182.3s-.053.1-.083.149-.089.188-.129.281c-.02.043-.036.089-.053.132a1.9,1.9,0,0,0-.106.4.714.714,0,0,0,0,.116V4.39A10.225,10.225,0,0,0,4.026,7.739,2.06,2.06,0,1,0,7.151,7.62c.744-.426,1.67-1.045,2.086-1.253,1.359-.681,2.318-.417,3.911-1.537v.532a.3.3,0,0,0,.3.3H15.1a.3.3,0,0,0,.3-.3V.3A.3.3,0,0,0,15.1,0ZM7.451,9.025a1.825,1.825,0,1,1-3.637,0,1.789,1.789,0,0,1,.35-1.068c.03-.043.063-.086.1-.126a1.759,1.759,0,0,1,.592-.45.945.945,0,0,1,.159-.066A1.8,1.8,0,0,1,5.64,7.2h0V7.24c-.136.4.03.992.661.8a4.159,4.159,0,0,0,.625-.291A1.832,1.832,0,0,1,7.451,9.025ZM4.327,4.936a.314.314,0,0,1,.036-.1,2.923,2.923,0,0,1,1.57-1.435,1.131,1.131,0,0,1,.132-.056A2.1,2.1,0,0,1,6.3,3.273a1.61,1.61,0,0,1,1.984.853C8.685,4.933,6.42,6,5.765,6.972a.932.932,0,0,0-.136,0,1.984,1.984,0,0,0-.717.132A5.814,5.814,0,0,1,4.327,4.936Zm8.817-.331c-1.653,1.27-2.645.965-4.014,1.653-.41.2-1.342.86-2.076,1.293l-.215.122a3.108,3.108,0,0,1-.552.261c-.546.165-.684-.364-.529-.714a.572.572,0,0,1,.053-.1c.03-.04.06-.083.1-.126C6.641,6.123,8.84,5.012,8.4,4.08A1.67,1.67,0,0,0,6.9,3.061H6.83a2.228,2.228,0,0,0-.519.073A1.653,1.653,0,0,0,6.1,3.21H6.069l-.1.04A3.491,3.491,0,0,0,4.225,4.777c0,.03-.026.063-.036.093A4.954,4.954,0,0,0,4.76,7.161a1.964,1.964,0,0,0-.641.469A10.344,10.344,0,0,1,2.9,4.39V4.357a.621.621,0,0,1,0-.109A1.927,1.927,0,0,1,3,3.861c.017-.043.033-.086.053-.129s.079-.179.122-.271a1.531,1.531,0,0,0,.086-.155c.056-.1.112-.2.175-.294.033-.046.274-.35.3-.4L3.874,2.5a10.685,10.685,0,0,0-1.213.4c-.46.258-1.517,1.111-1.934,1.3-.473.215-.631,0-.516-.331A10.626,10.626,0,0,1,2.244,1.931c.212-.152.331-.245.46-.331-.479.03-1.207.056-1.448.046C.8,1.613.644,1.412.866,1.131A9.4,9.4,0,0,1,3.448.42,36.352,36.352,0,0,1,7.187.281H7.62A42.9,42.9,0,0,1,13.148.82Zm2.007.549a.251.251,0,0,1-.255.255h-1.25a.255.255,0,0,1-.255-.255V.529a.255.255,0,0,1,.255-.255H14.9a.251.251,0,0,1,.255.255Z" transform="translate(-0.975 0)"/><path class="a" d="M15.94,24.725h.284a.089.089,0,0,0,.079-.04l.1-.136H15.292a.1.1,0,0,0-.083.04l-.1.136h.463a.331.331,0,0,1,.208.182h-.489a.109.109,0,0,0-.083.04l-.1.139h.7a.331.331,0,0,1-.331.307h-.3v.192a.106.106,0,0,0,.023.063l.585.7a.1.1,0,0,0,.076.036H16.1l-.612-.754h0a.572.572,0,0,0,.542-.473.1.1,0,0,1,.1-.073h.1a.093.093,0,0,0,.079-.043l.1-.136h-.331a.1.1,0,0,1-.089-.066.691.691,0,0,0-.046-.119Z" transform="translate(-11.106 -16.433)"/><path class="a" d="M13.367,41.54a1.547,1.547,0,1,0,1.547,1.547A1.547,1.547,0,0,0,13.367,41.54Zm0,2.751a1.2,1.2,0,1,1,1.2-1.2,1.2,1.2,0,0,1-1.2,1.2Z" transform="translate(-5.904 -29.807)"/></g></g></svg>