<svg xmlns="http://www.w3.org/2000/svg" width="24.799" height="25.131" viewBox="0 0 24.799 25.131"><defs><style>.a{fill:#1c4090;}</style></defs><g transform="translate(-2.9)"><path class="a" d="M27.792,145.876c0-2.714-1.286-4.864-3.927-6.567v-.893l.8-4.545a.646.646,0,0,0-.633-.771H20.317a.646.646,0,0,0-.633.771l.8,4.545v.893a9.684,9.684,0,0,0-2.439,2.174,5.626,5.626,0,0,0-6.327-.059c-.039-.025-.079-.054-.118-.079l-.118-.074c-.034-.02-.069-.039-.108-.064a.541.541,0,0,1-.054-.029l-.069-.039-.054-.029c-.025-.01-.044-.025-.069-.034l-.059-.029c-.025-.01-.044-.025-.069-.034a.239.239,0,0,0-.034-.015,1.056,1.056,0,0,0-.108-.049l-.1-.044a.6.6,0,0,0-.083-.034l-.029-.015c-.029-.01-.054-.025-.083-.034s-.034-.015-.054-.02-.049-.02-.079-.029-.039-.015-.059-.02-.054-.015-.079-.025l-.049-.015a.5.5,0,0,0-.069-.02c-.02,0-.044-.015-.064-.02L10,140.644c-.044-.01-.088-.025-.137-.034l-.137-.029-.069-.015a.03.03,0,0,1-.02,0,.373.373,0,0,0-.123.736,4.7,4.7,0,0,1,1.571.6,4.866,4.866,0,1,1-2.93-.658.369.369,0,0,0,.334-.4.377.377,0,0,0-.373-.339H8.09c-.162.015-.319.034-.476.064-.083.015-.162.029-.241.049a5.611,5.611,0,0,0-2.685,1.463l-.083.083c-.054.054-.108.113-.162.172-.025.029-.054.059-.079.088l-.088.1c-.029.034-.059.069-.083.1s-.054.069-.083.108-.054.069-.079.108c0,0,0,0,0,.01-.02.029-.039.054-.059.083l-.029.044c-.015.025-.029.044-.044.069s-.015.025-.025.034l-.044.074c-.01.02-.025.034-.034.054l-.025.039a.8.8,0,0,0-.049.088c-.02.034-.034.064-.054.1s-.025.049-.039.079c-.034.064-.064.128-.093.191s-.064.137-.093.211a1.277,1.277,0,0,0-.049.123,4.793,4.793,0,0,0-.177.53.367.367,0,0,0-.02.079c-.025.083-.044.167-.064.255,0,.029-.015.059-.02.088-.02.093-.034.182-.049.275a5.507,5.507,0,0,0-.059.82,5.868,5.868,0,0,0,.029.594c0,.029,0,.054.01.083s0,.049.01.074a.1.1,0,0,0,0,.034c0,.025,0,.049.01.074a1.344,1.344,0,0,0,.025.137c.01.054.02.113.034.167a5.412,5.412,0,0,0,.9,2.066c.029.044.064.088.093.128s.039.054.059.079h0l.049.064a5.7,5.7,0,0,0,4.4,2.111h.142c.044,0,.083,0,.128,0s.083,0,.123,0a.062.062,0,0,0,.029,0c.044,0,.088,0,.133-.01.088-.01.182-.02.27-.034a.044.044,0,0,0,.025,0l.083-.015a.209.209,0,0,0,.054-.01c.064-.015.133-.025.2-.039a5.759,5.759,0,0,0,1.919-.825,0,0,0,0,1,0,0,5.62,5.62,0,0,0,6.538-.221,3.489,3.489,0,0,0,2.327.893h3.132a3.705,3.705,0,0,0,2.925-1.512.372.372,0,0,0-.054-.52.368.368,0,0,0-.52.054,2.971,2.971,0,0,1-2.351,1.237H20.6a2.737,2.737,0,0,1-1.767-.643,5.615,5.615,0,0,0-.191-8.074l0,0a8.961,8.961,0,0,1,2.341-2.066h2.415c2.5,1.585,3.662,3.485,3.662,5.993a5.774,5.774,0,0,1-.285,2.381.371.371,0,1,0,.692.265A6.513,6.513,0,0,0,27.792,145.876Zm-13.979,2.282h0a4.245,4.245,0,0,0,.216-.638,0,0,0,0,1,0,0,5.525,5.525,0,0,0,.187-1.423h0a5.651,5.651,0,0,0-.329-1.895l0,0a5.646,5.646,0,0,0-.555-1.134h0a3.382,3.382,0,1,1,0,6.047h0A5.66,5.66,0,0,0,13.813,148.159Zm5.89-2.071a4.862,4.862,0,0,1-7.353,4.172,0,0,0,0,1,0,0,5.118,5.118,0,0,0,.535-.545h0a4.124,4.124,0,1,0,0-7.255h0c-.02-.025-.044-.049-.064-.074l-.01-.01c-.029-.034-.059-.069-.093-.1s-.039-.044-.059-.064l-.01-.01a.781.781,0,0,0-.064-.064s0-.01-.01-.01l0,0-.059-.059c-.025-.025-.054-.049-.079-.074s-.059-.054-.088-.079A4.873,4.873,0,0,1,19.7,146.087Zm3.416-6.945H21.23v-.383h1.89Zm.059-1.124H21.171l-.741-4.172h3.48Z" transform="translate(-0.095 -126.567)"/><path class="a" d="M8.041,13.257H22.015a1.041,1.041,0,0,0,1.041-1.041V4.83a1.041,1.041,0,0,0-1.041-1.041h-2.13L16.2,1.723a1.261,1.261,0,1,0-2.346,0L10.176,3.789H8.041A1.041,1.041,0,0,0,7,4.83v7.392A1.04,1.04,0,0,0,8.041,13.257ZM15.03.741a.52.52,0,1,1-.52.52A.517.517,0,0,1,15.03.741Zm-.707,1.571a1.269,1.269,0,0,0,1.409,0l2.636,1.477H11.692ZM7.741,4.83a.3.3,0,0,1,.3-.3H22.015a.3.3,0,0,1,.3.3v7.392a.3.3,0,0,1-.3.3H8.041a.3.3,0,0,1-.3-.3Z" transform="translate(-3.899)"/><path class="a" d="M42.637,127.083h1.9c.157,0,.236-.172.236-.344s-.079-.344-.236-.344H43.073V122.94c0-.167-.2-.241-.388-.241s-.388.074-.388.241v3.9C42.293,127,42.46,127.083,42.637,127.083Z" transform="translate(-37.464 -116.677)"/><path class="a" d="M100.2,127.308a1.253,1.253,0,0,0,1.409-1.369v-1.669a1.407,1.407,0,0,0-2.812,0v1.669A1.247,1.247,0,0,0,100.2,127.308Zm-.623-3.043c0-.471.226-.687.623-.687s.628.216.628.687v1.669c0,.471-.241.687-.628.687s-.623-.216-.623-.687Z" transform="translate(-91.193 -116.868)"/><path class="a" d="M164.055,126.356l.226-.8h1.369l.226.8c.029.113.133.157.265.157.206,0,.54-.142.481-.383l-1.153-3.765c-.054-.182-.275-.265-.506-.265a.483.483,0,0,0-.5.265c-1.2,3.907-1.168,3.794-1.168,3.828C163.3,126.478,163.976,126.655,164.055,126.356Zm.913-3.244.52,1.841h-1.041Z" transform="translate(-152.526 -116.107)"/><path class="a" d="M240.669,126.933v-2.405l1.286,2.405c.211.383.839.27.839,0V123.04c0-.167-.2-.241-.388-.241s-.388.074-.388.241v2.405l-1.153-2.233c-.187-.353-.3-.412-.579-.412-.2,0-.388.079-.388.245v3.887C239.888,127.262,240.669,127.257,240.669,126.933Z" transform="translate(-225.365 -116.773)"/><path class="a" d="M34.747,319.868a.37.37,0,1,0-.574.466,4.123,4.123,0,1,0-.761-1.433.371.371,0,1,0,.712-.211,3.372,3.372,0,1,1,.623,1.178Z" transform="translate(-28.848 -298.207)"/><path class="a" d="M14.12,289.393h0a5.662,5.662,0,0,1-.4,2.071,5.562,5.562,0,0,1-.486.947,5.993,5.993,0,0,1-.447.6,5.572,5.572,0,0,1-.53.545,5.442,5.442,0,0,1-.623.486,5.555,5.555,0,0,1-1.924.82c-.064.015-.133.029-.2.039-.02,0-.034,0-.054.01l-.083.015c-.01,0-.015,0-.025,0-.088.015-.182.025-.27.034a1.2,1.2,0,0,1-.133.01.062.062,0,0,0-.029,0,1.031,1.031,0,0,1-.123,0c-.044,0-.083,0-.128,0H8.51a5.606,5.606,0,0,1-4.383-2.111.317.317,0,0,1-.049-.064h0c-.02-.025-.039-.054-.059-.079-.029-.044-.064-.088-.093-.128a5.568,5.568,0,0,1-.9-2.061c-.01-.054-.025-.113-.034-.167s-.015-.093-.025-.137c0-.025,0-.049-.01-.074s0-.02,0-.034,0-.049-.01-.074,0-.054-.01-.083q-.029-.294-.029-.589a5.115,5.115,0,0,1,.064-.829c.015-.093.029-.187.049-.275a.57.57,0,0,1,.02-.088c.02-.083.039-.172.064-.255,0-.025.015-.054.02-.079.049-.182.113-.358.177-.53.015-.044.034-.083.049-.123.029-.074.059-.142.093-.211s.064-.128.093-.191c.015-.025.025-.049.039-.079s.034-.064.054-.1.034-.059.049-.088l.025-.039a.329.329,0,0,1,.034-.054l.044-.074a.088.088,0,0,1,.025-.034c.015-.025.029-.049.044-.069l.029-.044c.02-.029.039-.054.059-.083,0,0,0,0,0-.01.025-.034.049-.074.079-.108s.054-.074.083-.108.054-.069.083-.1l.088-.1c.025-.029.049-.059.079-.088.054-.059.108-.113.162-.172l.083-.083a5.606,5.606,0,0,1,2.685-1.458c.079-.02.162-.034.241-.049.167-.029.334-.054.506-.069a.371.371,0,0,1,.039.741,4.9,4.9,0,1,0,1.374.074.373.373,0,0,1,.123-.736l.083.015.137.029c.044.01.088.02.137.034l.108.029a.317.317,0,0,1,.064.02c.025,0,.049.015.069.02l.049.015c.025.01.054.015.079.025s.039.015.059.02.049.02.079.029.034.015.054.02a.594.594,0,0,1,.083.034l.029.015c.029.01.054.025.083.034l.1.044c.039.015.074.034.108.049l.034.015c.025.01.044.025.069.034l.059.029c.025.01.044.025.069.034l.054.029a.49.49,0,0,1,.069.039.542.542,0,0,1,.054.029c.034.02.069.039.108.064l.118.074c.039.025.079.049.118.079a5.442,5.442,0,0,1,.623.486c.029.025.059.054.088.078s.054.049.079.074a.132.132,0,0,0,.029.025l.029.029,0,0s0,.01.01.01l.064.064.01.01a.758.758,0,0,1,.059.064c.029.034.059.069.093.1,0,0,0,0,.01.01.02.025.044.049.064.074a5.32,5.32,0,0,1,.447.6,5.537,5.537,0,0,1,.56,1.134A5.936,5.936,0,0,1,14.12,289.393Z" transform="translate(0 -269.868)"/></g></svg>