<svg xmlns="http://www.w3.org/2000/svg" width="24.622" height="24.61" viewBox="0 0 24.622 24.61"><defs><style>.a{fill:#1c4090;}</style></defs><g transform="translate(0 -0.014)"><path class="a" d="M9,59.385a.384.384,0,0,0,.385.385H27.077a.385.385,0,0,0,0-.769H9.385A.384.384,0,0,0,9,59.385Z" transform="translate(-5.538 -36.299)"/><path class="a" d="M26.231,54H22.385a.385.385,0,1,0,0,.769h3.846a.385.385,0,1,0,0-.769Z" transform="translate(-13.538 -33.222)"/><path class="a" d="M23.623.48l-.8-.338a1.622,1.622,0,0,0-1.314.023,1.851,1.851,0,0,0-.941.983l-.309.828L19.855,1.8a.77.77,0,0,0-1.009.407L16.289,8.227a.385.385,0,1,0,.708.3l2.557-6.018.44.187-3.376,9.051a.765.765,0,0,0,.029.6l-.315.735H8.846a.385.385,0,0,0,0,.769h7.167a.742.742,0,0,0-.047.086L15.347,15.4a.131.131,0,0,0-.014,0H8.846a.385.385,0,0,0,0,.769h6.176l-.56,1.318a.763.763,0,0,0-.053.22H8.846a.385.385,0,0,0,0,.769h5.591l-.9,1.3a.761.761,0,0,0-.128.554l.249,1.637a.384.384,0,0,0,.6.258l1.368-.945a.763.763,0,0,0,.319-.488l.344-1.793a.763.763,0,0,0,.641-.458l.027-.061h4.58a.385.385,0,0,0,0-.769H17.285l.654-1.538h3.6a.385.385,0,0,0,0-.769H18.266l.171-.4a.755.755,0,0,0,.058-.324.752.752,0,0,0,.189-.262l.233-.55h2.62a.385.385,0,0,0,0-.769H19.545a.77.77,0,0,0,.048-.073l.883-1.85h3.37V22.7h-.769a.384.384,0,0,0-.385.385v.769H2.778a.379.379,0,0,0-.124-.286.385.385,0,0,0-.543.029.768.768,0,0,1-1.342-.512V10.778a.769.769,0,1,1,1.538,0V21.932a.385.385,0,1,0,.769,0V11.162H15.769a.385.385,0,1,0,0-.769H3.022A1.535,1.535,0,0,0,0,10.778V23.085a1.54,1.54,0,0,0,1.538,1.538H22.692a.77.77,0,0,0,.769-.769V23.47h.385a.77.77,0,0,0,.769-.769V11.162a.77.77,0,0,0-.769-.769h-3l3.628-7.607A1.741,1.741,0,0,0,23.623.48Zm-5.594,13.5-1.053-.448.3-.706,1.05.447Zm-1.356.261h0l1.052.447-1.5,3.54-1.055-.448h0Zm-2.344,6.99-.157-1.028,1.074-1.555.3.128-.356,1.859Zm4.57-8.552-1.562-.664L20.7,3.006,23.04,4ZM23.77,2.471l-.4.837-2.4-1.023.318-.852a1.075,1.075,0,0,1,.543-.566.858.858,0,0,1,.7-.017l.8.338A.969.969,0,0,1,23.77,2.471Z" transform="translate(0 0)"/></g></svg>