<svg xmlns="http://www.w3.org/2000/svg" width="14.531" height="14.531" viewBox="0 0 14.531 14.531"><defs><style>.a{fill:#1b3e8e;}</style></defs><g transform="translate(-4.999 -6)"><g transform="translate(4.999 6)"><path class="a" d="M13.645,40a1.645,1.645,0,1,0,1.645,1.645A1.647,1.647,0,0,0,13.645,40Zm0,3.016a1.371,1.371,0,1,1,1.371-1.371A1.371,1.371,0,0,1,13.645,43.016Z" transform="translate(-10.081 -30.678)"/><path class="a" d="M17.99,6H16.24l-5.372,5.372a4.7,4.7,0,0,0-1.213-.159,4.66,4.66,0,1,0,4.558,3.67l1.206-1.206V12.306h1.371l.548-.548V10.113l.548-.548H19.53V6Zm1.266.274v.01l-6.278,6.278a.411.411,0,0,1-.582-.582L18.1,6.274Zm0,3.016H17.772l-.08.08-.548.548-.08.08v1.645l-.388.388H15.144v1.532l-1.125,1.125-.106.106.032.146a4.387,4.387,0,1,1-4.289-3.453,4.437,4.437,0,0,1,1.143.15l.153.041.112-.112,5.291-5.291h1.362L12.2,11.787a.685.685,0,0,0,.969.969l6.084-6.084Z" transform="translate(-4.999 -6)"/><g transform="translate(4.524 9.733)"><path class="a" d="M21.637,45.338H21.5v-.274h.137a3.431,3.431,0,0,0,3.427-3.427V41.5h.274v.137A3.705,3.705,0,0,1,21.637,45.338Z" transform="translate(-21.5 -41.5)"/></g></g></g></svg>