<svg xmlns="http://www.w3.org/2000/svg" width="23.265" height="23.264" viewBox="0 0 23.265 23.264"><defs><style>.a{fill:#1b3e8e;}.b{fill:#1c408f;}</style></defs><g transform="translate(0.001 -0.105)"><path class="a" d="M18.194,7.11c-.155-.076-.321-.15-.491-.222A4.651,4.651,0,1,0,9.3,6.6c-.247.093-.489.2-.727.308A4.828,4.828,0,0,0,5.5,5.927a.777.777,0,0,0-.771.651,5.944,5.944,0,0,0-.069,1.1,6.727,6.727,0,0,0-.926.116A.778.778,0,0,0,3.1,8.59a4.762,4.762,0,0,0,.575,2.17l-.133.147c-.248.276-.5.561-.765.825a3.125,3.125,0,0,1-1.737.641A1.205,1.205,0,0,0,.024,13.807l.63,3.171c.048.267.3.479.76.775l.054.036a4.942,4.942,0,0,0,1.1.531,5.988,5.988,0,0,1,.712.307A4.081,4.081,0,0,1,4.627,19.8c.064.09.133.177.208.265a5.048,5.048,0,0,0,2.53,1.429v.712a1.163,1.163,0,0,0,1.163,1.163h2.713A1.163,1.163,0,0,0,12.4,22.206v-.049c.324.015.648.03.975.041.178.006.354.009.529.009.279,0,.551-.01.821-.025v.024a1.163,1.163,0,0,0,1.163,1.163h2.713a1.163,1.163,0,0,0,1.163-1.163v-1.5a7.277,7.277,0,0,0,3.488-5.829A8.418,8.418,0,0,0,18.194,7.11ZM13.567.888A3.869,3.869,0,0,1,15.26,8.243,12.8,12.8,0,0,0,11.45,8,3.87,3.87,0,0,1,13.567.888ZM5.495,6.7a4.436,4.436,0,0,1,2.317.6c-.37.21-.743.452-1.114.714a3.713,3.713,0,0,0-1.266-.321A4.9,4.9,0,0,1,5.495,6.7ZM3.882,8.558a5.826,5.826,0,0,1,1.173-.111c.007,0,.013,0,.019,0a.2.2,0,0,0,.036,0,2.408,2.408,0,0,1,1.938.814,1.163,1.163,0,0,1,.232,1.262,1.753,1.753,0,0,1-1.473.83c-.864,0-1.837-.875-1.93-2.8Zm18.6,6.281a6.459,6.459,0,0,1-2.733,4.943.382.382,0,0,0-.367-.288.388.388,0,0,0-.388.388v2.326a.388.388,0,0,1-.388.387H15.892a.388.388,0,0,1-.388-.387V21.043a.388.388,0,0,0-.775,0V21.4c-.43.026-.871.039-1.324.021-.336-.011-.668-.026-1-.042v-.338a.388.388,0,0,0-.775,0v1.163a.388.388,0,0,1-.387.387H8.528a.388.388,0,0,1-.388-.387V20.268a.388.388,0,1,0-.775,0v.417a4.013,4.013,0,0,1-1.942-1.127c-.059-.069-.114-.138-.169-.214a4.86,4.86,0,0,0-1.611-1.4,6.664,6.664,0,0,0-.8-.349,4.3,4.3,0,0,1-.936-.446l-.07-.046a2.648,2.648,0,0,1-.432-.319l-.62-3.129a.429.429,0,0,1,.072-.338.42.42,0,0,1,.288-.175,3.923,3.923,0,0,0,2.186-.863c.275-.278.538-.57.791-.853l.032-.036a2.335,2.335,0,0,0,1.654.74,2.517,2.517,0,0,0,2.168-1.26A1.924,1.924,0,0,0,7.668,8.8a2.445,2.445,0,0,0-.284-.312c.282-.19.564-.37.843-.528A9.863,9.863,0,0,1,9.676,7.3a4.684,4.684,0,0,0,.688.827c-.437.065-.714.127-.76.138a.388.388,0,0,0,.174.756c.048-.012,4.9-1.093,7.82,1.1a.388.388,0,0,0,.465-.62,6.914,6.914,0,0,0-1.8-.954,4.6,4.6,0,0,0,1.012-.989c.2.085.4.17.579.257a7.65,7.65,0,0,1,4.626,7.033Zm0,0" transform="translate(0 0)"/><path class="b" d="M25.346,17.195h.836l.324-.445H23.6l-.324.445h1.149a.864.864,0,0,1,.53.459H23.6l-.324.445h1.753a.843.843,0,0,1-.846.768H23.44v.569l1.608,1.881h.711L24.23,19.432h-.036A1.423,1.423,0,0,0,25.617,18.1h.58l.324-.445h-.964A1.423,1.423,0,0,0,25.346,17.195Z" transform="translate(-11 -14.15)"/></g></svg>