<svg xmlns="http://www.w3.org/2000/svg" width="18.108" height="16.641" viewBox="0 0 18.108 16.641"><defs><style>.a{fill:#1c4090;}</style></defs><g transform="translate(-14.327 -33.92)"><path class="a" d="M91.1,85.582v-.015a.3.3,0,0,0-.142-.255l-6.369-3.967a0,0,0,0,1,0,0,.113.113,0,0,0-.03-.015,0,0,0,0,1,0,0l-.037-.011h-.007l-.03-.008h-.007c-.011,0-.026,0-.037,0a.128.128,0,0,0-.037,0h-.007a.088.088,0,0,0-.03.008h-.007l-.037.011a0,0,0,0,0,0,0c-.011,0-.019.011-.03.015a0,0,0,0,0,0,0l-6.369,3.967a.305.305,0,0,0-.142.255v.015c0,.086,0,.217,0,.382a12.769,12.769,0,0,0,.753,4.987,8.72,8.72,0,0,0,5.829,5.2l.041.011h.007c.015,0,.026,0,.041,0a.153.153,0,0,0,.041,0h.007a.17.17,0,0,0,.041-.011,8.722,8.722,0,0,0,5.826-5.2,12.7,12.7,0,0,0,.753-4.987ZM84.135,95.45a8.109,8.109,0,0,1-5.556-6.418h5.556Zm6.257-7.017H84.734V82.139L90.5,85.732c0,.071,0,.15,0,.24A15.112,15.112,0,0,1,90.391,88.433Z" transform="translate(-61.053 -45.605)"/><path class="a" d="M32.3,39.584l-3.361-2.158V35.084a.364.364,0,0,0-.363-.363H27.427a.364.364,0,0,0-.363.363v1.143l-3.522-2.259a.3.3,0,0,0-.307-.011l-.037.022-8.733,5.608a.3.3,0,0,0-.09.416.3.3,0,0,0,.251.139.281.281,0,0,0,.161-.049l8.594-5.518,8.591,5.515a.3.3,0,1,0,.326-.506Z" transform="translate(0 0)"/></g></svg>