<svg xmlns="http://www.w3.org/2000/svg" width="22" height="22" viewBox="0 0 22 22"><defs><style>.a{fill:#1c4090;}</style></defs><path class="a" d="M20.581,13.377V11a1.034,1.034,0,0,0-.71-.994V8.871a8.871,8.871,0,0,0-17.742,0v1.135a1.034,1.034,0,0,0-.71.994v2.377A2.438,2.438,0,0,0,0,15.613v.71a2.469,2.469,0,0,0,2.484,2.484h.39a1.26,1.26,0,0,0,.142.319,1.389,1.389,0,0,0,.284.355,1.968,1.968,0,0,0,.284.213c.035,0,.035.035.071.035a2.3,2.3,0,0,0,.461.142h.852a1.424,1.424,0,0,0,1.419-1.419V13.484A1.457,1.457,0,0,0,6,12.49l-.106-.106c-.035-.035-.071-.071-.106-.071s-.035-.035-.071-.035a1.312,1.312,0,0,0-.745-.213V11a1.034,1.034,0,0,0-.71-.994V8.871a6.742,6.742,0,0,1,13.484,0v1.135a1.034,1.034,0,0,0-.71.994v1.065a.6.6,0,0,0-.248.035.13.13,0,0,0-.106.035,1.063,1.063,0,0,0-.355.142c-.035,0-.071.035-.106.071-.071.071-.177.106-.248.177a1.442,1.442,0,0,0-.355.958v4.968a1.781,1.781,0,0,0,.071.426,1.73,1.73,0,0,0,.106.248.636.636,0,0,0,.177.248l.071.071a1.608,1.608,0,0,0,.674.39.13.13,0,0,1,.106.035h.142a1.785,1.785,0,0,1-1.739,1.419H13.306l-.426-.816a1.069,1.069,0,0,0-.958-.6H9.581a1.065,1.065,0,1,0,0,2.129h5.677a2.483,2.483,0,0,0,2.448-2.129h.035a.781.781,0,0,0,.284-.035c.035,0,.106-.035.142-.035a1.73,1.73,0,0,0,.248-.106c.071-.035.142-.106.213-.142.035-.035.106-.071.142-.142l.035-.035c.035-.035.071-.071.071-.106a1.11,1.11,0,0,0,.177-.355c0-.035.035-.071.035-.106h.426A2.469,2.469,0,0,0,22,16.323v-.71A2.438,2.438,0,0,0,20.581,13.377Zm-11,7.913a.355.355,0,0,1,0-.71h2.413a.373.373,0,0,1,.319.177l.248.532ZM.71,16.323v-.71a1.757,1.757,0,0,1,1.774-1.774h.355V18.1H2.484A1.757,1.757,0,0,1,.71,16.323Zm4.968-2.839v4.968a.712.712,0,0,1-.71.71h-.71a.712.712,0,0,1-.71-.71V13.484a.712.712,0,0,1,.71-.71h.71A.712.712,0,0,1,5.677,13.484ZM4.116,12.065a1.006,1.006,0,0,0-.461.142c-.035,0-.035.035-.071.035a.854.854,0,0,0-.284.213,1.389,1.389,0,0,0-.284.355,1.26,1.26,0,0,0-.142.319h-.39a1.207,1.207,0,0,0-.355.035V11a.382.382,0,0,1,.355-.355H3.9A.382.382,0,0,1,4.258,11v1.065ZM11,1.419A7.451,7.451,0,0,0,3.548,8.871V9.935h-.71V8.871a8.161,8.161,0,0,1,16.323,0V9.935h-.71V8.871A7.451,7.451,0,0,0,11,1.419Zm7.452,17.032a.712.712,0,0,1-.71.71h-.71a.712.712,0,0,1-.71-.71V13.484a.712.712,0,0,1,.71-.71h.71a.712.712,0,0,1,.71.71Zm.568-5.535a.773.773,0,0,0-.177-.284c-.035-.035-.035-.071-.071-.071a1.389,1.389,0,0,0-.355-.284c-.035-.035-.071-.035-.142-.071-.035,0-.071-.035-.106-.035h-.035a.13.13,0,0,1-.106-.035.382.382,0,0,0-.284-.071V11a.382.382,0,0,1,.355-.355h1.419a.382.382,0,0,1,.355.355v2.165c-.106,0-.248-.035-.355-.035h-.39Zm2.271,3.406A1.757,1.757,0,0,1,19.516,18.1h-.355V13.839h.355a1.757,1.757,0,0,1,1.774,1.774Z"/><rect class="a" width="1" transform="translate(17 14)"/><path class="a" d="M0,0H1V2H0Z" transform="translate(17 14)"/><rect class="a" width="1" height="1" transform="translate(17 17)"/><rect class="a" width="1" transform="translate(4 14)"/><rect class="a" width="1" height="2" transform="translate(4 14)"/><rect class="a" width="1" height="1" transform="translate(4 17)"/><rect class="a" width="1" transform="translate(4 14)"/><path class="a" d="M11.158,34.426l-.106-.106c-.035-.035-.071-.071-.106-.071s-.035-.035-.071-.035A1.312,1.312,0,0,0,10.129,34H9.277a1.006,1.006,0,0,0-.461.142c-.035,0-.035.035-.071.035a.854.854,0,0,0-.284.213,1.389,1.389,0,0,0-.284.355,1.26,1.26,0,0,0-.142.319A1.207,1.207,0,0,0,8,35.419v4.968a1.094,1.094,0,0,0,.035.355,1.26,1.26,0,0,0,.142.319,1.389,1.389,0,0,0,.284.355,1.968,1.968,0,0,0,.284.213c.035,0,.035.035.071.035a2.3,2.3,0,0,0,.461.142h.852a1.424,1.424,0,0,0,1.419-1.419V35.419A1.457,1.457,0,0,0,11.158,34.426Zm-.319,5.961a.712.712,0,0,1-.71.71h-.71a.712.712,0,0,1-.71-.71V35.419a.712.712,0,0,1,.71-.71h.71a.712.712,0,0,1,.71.71Z" transform="translate(-5.161 -21.935)"/><rect class="a" width="1" transform="translate(17 14)"/><path class="a" d="M47.513,35.065h0c-.035-.071-.035-.142-.071-.213a.773.773,0,0,0-.177-.284c-.035-.035-.035-.071-.071-.071a1.389,1.389,0,0,0-.355-.284c-.035-.035-.071-.035-.142-.071-.035,0-.071-.035-.106-.035h-.035a.13.13,0,0,1-.106-.035A.527.527,0,0,0,46.129,34h-.71a.6.6,0,0,0-.248.035.13.13,0,0,0-.106.035,1.063,1.063,0,0,0-.355.142c-.035,0-.071.035-.106.071-.071.071-.177.106-.248.177a1.442,1.442,0,0,0-.355.958v4.968a1.781,1.781,0,0,0,.071.426,1.73,1.73,0,0,0,.106.248.636.636,0,0,0,.177.248l.071.071a1.608,1.608,0,0,0,.674.39.13.13,0,0,1,.106.035h.923a.692.692,0,0,0,.284-.035c.035,0,.106-.035.142-.035a1.729,1.729,0,0,0,.248-.106c.071-.035.142-.106.213-.142.035-.035.106-.071.142-.142l.035-.035c.035-.035.071-.071.071-.106a1.11,1.11,0,0,0,.177-.355c0-.035.035-.071.035-.106a1.207,1.207,0,0,0,.035-.355V35.419A.6.6,0,0,0,47.513,35.065Zm-.674,5.323a.712.712,0,0,1-.71.71h-.71a.712.712,0,0,1-.71-.71V35.419a.712.712,0,0,1,.71-.71h.71a.712.712,0,0,1,.71.71Z" transform="translate(-28.387 -21.935)"/></svg>