<svg xmlns="http://www.w3.org/2000/svg" width="23.08" height="27.435" viewBox="0 0 23.08 27.435"><defs><style>.a{fill:#1c4090;}</style></defs><g transform="translate(-16 -16)"><path class="a" d="M38.862,16H24.492a3.706,3.706,0,0,0-3.7,3.7v16.33H19.7a3.7,3.7,0,1,0,0,7.4H35.378a3.706,3.706,0,0,0,3.7-3.7V16.218A.218.218,0,0,0,38.862,16ZM21.226,19.7a3.266,3.266,0,0,1,3.266-3.266H38.644v19.6H21.226ZM19.7,43a3.266,3.266,0,1,1,0-6.532H33.637a3.7,3.7,0,0,0,0,6.532Zm18.943-3.266a3.266,3.266,0,1,1-3.266-3.266h3.266Z"/><path class="a" d="M46.968,30.721a.222.222,0,0,0-.17-.213l-3.266-.766a.179.179,0,0,0-.1,0l-3.266.766a.222.222,0,0,0-.17.213v3.484a4.059,4.059,0,0,0,2.077,3.545l1.306.823a.218.218,0,0,0,.222,0l1.459-.793h0a4.037,4.037,0,0,0,1.9-3.423Zm-.435,3.636a3.61,3.61,0,0,1-1.7,3.048l-1.35.749-1.193-.762a3.632,3.632,0,0,1-1.855-3.188V30.9l3.048-.719,3.048.719Z" transform="translate(-13.549 -7.754)"/><path class="a" d="M34.218,24.435H45.975a.218.218,0,0,0,0-.435H34.218a.218.218,0,1,0,0,.435Z" transform="translate(-10.162 -4.516)"/><path class="a" d="M46.193,54.218A.218.218,0,0,0,45.975,54H34.218a.218.218,0,0,0,0,.435H45.975A.218.218,0,0,0,46.193,54.218Z" transform="translate(-10.162 -21.452)"/><path class="a" d="M58.96,30H57.218a.218.218,0,0,0,0,.435H58.96a.218.218,0,0,0,0-.435Z" transform="translate(-23.146 -7.903)"/><path class="a" d="M59.524,36H58.218a.218.218,0,0,0,0,.435h1.306a.218.218,0,0,0,0-.435Z" transform="translate(-23.71 -11.291)"/><path class="a" d="M59.524,42H58.218a.218.218,0,0,0,0,.435h1.306a.218.218,0,0,0,0-.435Z" transform="translate(-23.71 -14.678)"/><path class="a" d="M54.218,48.435h3.048a.218.218,0,1,0,0-.435H54.218a.218.218,0,1,0,0,.435Z" transform="translate(-21.452 -18.065)"/><path class="a" d="M34.218,30.435H35.96a.218.218,0,0,0,0-.435H34.218a.218.218,0,0,0,0,.435Z" transform="translate(-10.162 -7.903)"/><path class="a" d="M34.218,36.435h1.306a.218.218,0,0,0,0-.435H34.218a.218.218,0,0,0,0,.435Z" transform="translate(-10.162 -11.291)"/><path class="a" d="M34.218,42.435h1.306a.218.218,0,0,0,0-.435H34.218a.218.218,0,0,0,0,.435Z" transform="translate(-10.162 -14.678)"/><path class="a" d="M34.218,48.435h3.048a.218.218,0,1,0,0-.435H34.218a.218.218,0,1,0,0,.435Z" transform="translate(-10.162 -18.065)"/><path class="a" d="M43.892,37.257a.222.222,0,0,0-.3-.044.218.218,0,0,0-.044.3L44.589,38.9h0l.044.035h.026a.183.183,0,0,0,.1.022.2.2,0,0,0,.118-.039h.022l2.426-2.077a.218.218,0,0,0-.283-.331l-2.247,1.929Z" transform="translate(-15.525 -11.55)"/></g></svg>