<svg xmlns="http://www.w3.org/2000/svg" width="18.856" height="23.94" viewBox="0 0 18.856 23.94"><defs><style>.a{fill:#1c3e8e;}</style></defs><g transform="translate(0.039 0)"><g transform="translate(-0.039 0)"><path class="a" d="M17.633,34.045a.4.4,0,0,0,0-.8h-6.49a.4.4,0,1,0,0,.8h5.468v2.04H1.781a1.016,1.016,0,1,1,0-2.03h1.5a.4.4,0,0,0,0-.8h-1.5a1.141,1.141,0,0,0-.134,0h0A1.81,1.81,0,0,0,.38,36.22a.776.776,0,0,0-.336.633V47.268a1.321,1.321,0,0,0,1.319,1.321H17.134a.776.776,0,0,0,.776-.776V36.853a.776.776,0,0,0-.5-.716V34.045ZM17.108,47.4a.38.38,0,0,1-.38.38H1.851A1.008,1.008,0,0,1,.843,46.774v-9.51a.38.38,0,0,1,.38-.38H16.736a.38.38,0,0,1,.38.38Z" transform="translate(0.039 -24.649)"/><path class="a" d="M45.066,55.3h-.023a.388.388,0,0,0-.388.388v1.034H41.34a1.81,1.81,0,1,0,0,3.62h3.315v1.034a.388.388,0,0,0,.388.388h.023a.388.388,0,0,0,.385-.388V55.688a.388.388,0,0,0-.385-.388Zm-3.723,4.256a1.016,1.016,0,1,1,0-2.032h3.312v2.032Z" transform="translate(-29.299 -41.002)"/><path class="a" d="M17.673,15.09a3.5,3.5,0,1,0,3.5,3.5,3.5,3.5,0,0,0-3.5-3.5Zm0,6.174a1.108,1.108,0,1,1,0,.008Z" transform="translate(-10.496 -11.188)"/><path class="a" d="M24.663,22.506h.613l.238-.326H23.388l-.238.326h.843a.613.613,0,0,1,.385.331h-.99l-.238.331h1.293a.626.626,0,0,1-.618.564h-.556v.414l1.176,1.378h.517l-1.12-1.381h-.026a1.034,1.034,0,0,0,1.034-.975h.424l.238-.326h-.7A.972.972,0,0,0,24.663,22.506Z" transform="translate(-17.154 -16.445)"/><path class="a" d="M49.3,0a3.5,3.5,0,1,0,3.5,3.5A3.5,3.5,0,0,0,49.3,0Zm0,6.174A2.673,2.673,0,1,1,51.967,3.5,2.673,2.673,0,0,1,49.3,6.174Z" transform="translate(-33.941 0)"/><path class="a" d="M56.293,7.416h.613l.238-.326H55.015l-.235.326h.833A.626.626,0,0,1,56,7.747h-.983l-.235.326h1.293a.626.626,0,0,1-.621.564H54.9V9.05l1.179,1.378h.517l-1.12-1.381h-.026a1.034,1.034,0,0,0,1.034-.975h.424l.238-.326h-.7a1.109,1.109,0,0,0-.155-.331Z" transform="translate(-40.606 -5.257)"/></g></g></svg>